<svg xmlns="http://www.w3.org/2000/svg" xmlns:xlink="http://www.w3.org/1999/xlink" width="150" zoomAndPan="magnify" viewBox="0 0 112.5 74.999997" height="100" preserveAspectRatio="xMidYMid meet" version="1.0"><defs><clipPath id="6ef3978047"><path d="M 17.070312 24.3125 L 94.722656 24.3125 L 94.722656 50.445312 L 17.070312 50.445312 Z M 17.070312 24.3125 " clip-rule="nonzero"/></clipPath><clipPath id="82578b41bd"><path d="M 93 28 L 94.722656 28 L 94.722656 30 L 93 30 Z M 93 28 " clip-rule="nonzero"/></clipPath><clipPath id="cb8eb4d253"><path d="M 24 24.3125 L 25 24.3125 L 25 26 L 24 26 Z M 24 24.3125 " clip-rule="nonzero"/></clipPath><clipPath id="d002758418"><path d="M 22 24.3125 L 23 24.3125 L 23 26 L 22 26 Z M 22 24.3125 " clip-rule="nonzero"/></clipPath><clipPath id="fa68d7fa48"><path d="M 23 24.3125 L 24 24.3125 L 24 26 L 23 26 Z M 23 24.3125 " clip-rule="nonzero"/></clipPath><clipPath id="3c74749fb9"><path d="M 23 24.3125 L 25 24.3125 L 25 26 L 23 26 Z M 23 24.3125 " clip-rule="nonzero"/></clipPath><clipPath id="26381f3154"><path d="M 17.070312 36 L 19 36 L 19 38 L 17.070312 38 Z M 17.070312 36 " clip-rule="nonzero"/></clipPath></defs><g clip-path="url(#6ef3978047)"><path fill="#ecdccd" d="M 19.453125 24.3125 C 19.453125 24.3125 32.683594 26.128906 34.621094 25.914062 C 36.558594 25.699219 89.648438 27.574219 94.707031 28.535156 L 92.390625 33.34375 L 93.738281 34.414062 L 91.53125 37.246094 C 91.53125 37.246094 89.273438 40.347656 89.054688 41.09375 C 88.839844 41.84375 88.195312 46.921875 88.195312 46.921875 L 88.519531 50.449219 C 88.519531 50.449219 54.738281 50.34375 45.644531 48.097656 C 36.554688 45.851562 17.835938 45.636719 17.835938 45.636719 L 19.019531 42.269531 L 18.15625 40.773438 C 18.15625 40.773438 18.265625 37.566406 18.050781 36.925781 C 17.835938 36.285156 17.082031 32.8125 17.082031 32.8125 L 17.296875 26.984375 L 19.449219 24.3125 Z M 19.453125 24.3125 " fill-opacity="1" fill-rule="evenodd"/></g><path fill="#ce303f" d="M 88.4375 43.015625 C 88.539062 43.007812 88.640625 42.984375 88.738281 42.957031 C 88.714844 43.117188 88.6875 43.285156 88.664062 43.457031 C 88.59375 43.46875 88.519531 43.480469 88.441406 43.484375 C 88.3125 43.488281 88.203125 43.382812 88.203125 43.253906 C 88.203125 43.121094 88.308594 43.015625 88.4375 43.015625 Z M 88.4375 43.015625 " fill-opacity="1" fill-rule="evenodd"/><path fill="#ce303f" d="M 88.777344 42.140625 C 88.882812 41.90625 88.648438 41.632812 88.445312 41.527344 C 88.332031 41.519531 88.238281 41.429688 88.230469 41.3125 C 88.21875 41.183594 88.3125 41.070312 88.445312 41.058594 C 88.652344 41.074219 88.847656 41.1875 89 41.351562 C 88.949219 41.609375 88.886719 41.984375 88.816406 42.421875 C 88.742188 42.351562 88.722656 42.234375 88.777344 42.140625 Z M 88.777344 42.140625 " fill-opacity="1" fill-rule="evenodd"/><path fill="#ce303f" d="M 89.089844 41.007812 C 89.074219 40.960938 89.070312 40.910156 89.085938 40.855469 C 89.109375 40.785156 89.164062 40.730469 89.230469 40.707031 C 89.167969 40.820312 89.121094 40.921875 89.089844 41.007812 Z M 89.089844 41.007812 " fill-opacity="1" fill-rule="evenodd"/><path fill="#ce303f" d="M 88.636719 40.875 C 87.859375 40.722656 87.515625 41.027344 87.277344 41.710938 C 87.238281 41.832031 87.101562 41.898438 86.980469 41.859375 C 86.855469 41.816406 86.785156 41.683594 86.828125 41.558594 C 87.160156 40.597656 87.746094 40.222656 88.773438 40.421875 C 88.898438 40.460938 88.96875 40.589844 88.933594 40.714844 C 88.894531 40.839844 88.765625 40.910156 88.636719 40.875 Z M 88.636719 40.875 " fill-opacity="1" fill-rule="evenodd"/><path fill="#ce303f" d="M 88.503906 42.835938 C 88.304688 42.9375 88.226562 42.933594 88.003906 42.886719 C 87.875 42.855469 87.796875 42.730469 87.832031 42.601562 C 87.863281 42.476562 87.992188 42.398438 88.117188 42.429688 C 88.195312 42.445312 88.199219 42.460938 88.261719 42.429688 C 88.375 42.363281 88.519531 42.402344 88.585938 42.511719 C 88.652344 42.625 88.617188 42.769531 88.503906 42.835938 Z M 88.503906 42.835938 " fill-opacity="1" fill-rule="evenodd"/><path fill="#ce303f" d="M 87.417969 42.246094 C 87.359375 41.871094 87.34375 41.757812 87.625 41.488281 C 87.722656 41.40625 87.875 41.417969 87.957031 41.519531 C 88.039062 41.621094 88.027344 41.769531 87.925781 41.851562 C 87.808594 41.960938 87.855469 41.972656 87.890625 42.1875 C 87.90625 42.320312 87.8125 42.4375 87.683594 42.449219 C 87.550781 42.464844 87.433594 42.375 87.417969 42.246094 Z M 87.417969 42.246094 " fill-opacity="1" fill-rule="evenodd"/><path fill="#ce303f" d="M 88.425781 41.75 C 88.519531 41.816406 88.511719 41.816406 88.574219 41.921875 C 88.621094 42.042969 88.554688 42.179688 88.433594 42.222656 C 88.332031 42.257812 88.222656 42.21875 88.160156 42.140625 C 88.058594 42.066406 88.027344 41.925781 88.097656 41.816406 C 88.167969 41.707031 88.316406 41.675781 88.425781 41.746094 Z M 88.425781 41.75 " fill-opacity="1" fill-rule="evenodd"/><path fill="#ce303f" d="M 87.214844 42.464844 C 87.140625 42.710938 87.40625 42.953125 87.621094 43.03125 C 87.734375 43.027344 87.839844 43.101562 87.863281 43.214844 C 87.890625 43.34375 87.8125 43.46875 87.683594 43.496094 C 87.148438 43.519531 86.589844 42.910156 86.773438 42.289062 C 86.824219 42.167969 86.960938 42.109375 87.082031 42.15625 C 87.207031 42.207031 87.265625 42.34375 87.214844 42.464844 Z M 87.214844 42.464844 " fill-opacity="1" fill-rule="evenodd"/><path fill="#ce303f" d="M 78.667969 41.109375 C 78.890625 41.242188 79.191406 41.042969 79.320312 40.855469 C 79.339844 40.746094 79.441406 40.660156 79.558594 40.664062 C 79.6875 40.667969 79.792969 40.777344 79.789062 40.90625 C 79.683594 41.425781 78.953125 41.820312 78.390625 41.492188 C 78.285156 41.417969 78.261719 41.269531 78.335938 41.164062 C 78.414062 41.058594 78.5625 41.035156 78.667969 41.109375 Z M 78.667969 41.109375 " fill-opacity="1" fill-rule="evenodd"/><path fill="#ce303f" d="M 79.445312 41.761719 C 79.503906 41.742188 79.5625 41.714844 79.605469 41.671875 C 79.664062 41.558594 79.800781 41.511719 79.914062 41.5625 C 80.035156 41.617188 80.089844 41.753906 80.035156 41.875 C 79.902344 42.085938 79.773438 42.148438 79.535156 42.222656 C 79.40625 42.25 79.28125 42.164062 79.257812 42.035156 C 79.234375 41.90625 79.316406 41.785156 79.445312 41.761719 Z M 79.445312 41.761719 " fill-opacity="1" fill-rule="evenodd"/><path fill="#ce303f" d="M 78.003906 40.761719 C 77.921875 40.554688 77.933594 40.476562 78.007812 40.261719 C 78.054688 40.140625 78.191406 40.078125 78.3125 40.125 C 78.4375 40.167969 78.5 40.304688 78.453125 40.425781 C 78.425781 40.503906 78.414062 40.507812 78.4375 40.570312 C 78.492188 40.6875 78.4375 40.828125 78.316406 40.878906 C 78.195312 40.933594 78.058594 40.878906 78.003906 40.761719 Z M 78.003906 40.761719 " fill-opacity="1" fill-rule="evenodd"/><path fill="#ce303f" d="M 78.714844 39.761719 C 79.097656 39.742188 79.214844 39.742188 79.449219 40.046875 C 79.523438 40.15625 79.488281 40.304688 79.378906 40.375 C 79.269531 40.445312 79.125 40.414062 79.050781 40.304688 C 78.953125 40.175781 78.941406 40.222656 78.71875 40.230469 C 78.585938 40.230469 78.480469 40.125 78.480469 39.996094 C 78.480469 39.867188 78.585938 39.761719 78.714844 39.761719 Z M 78.714844 39.761719 " fill-opacity="1" fill-rule="evenodd"/><path fill="#ce303f" d="M 79.097656 40.808594 C 79.023438 40.894531 79.023438 40.886719 78.910156 40.9375 C 78.78125 40.96875 78.65625 40.886719 78.625 40.761719 C 78.601562 40.65625 78.648438 40.554688 78.738281 40.503906 C 78.824219 40.410156 78.96875 40.398438 79.066406 40.476562 C 79.167969 40.5625 79.183594 40.710938 79.097656 40.808594 Z M 79.097656 40.808594 " fill-opacity="1" fill-rule="evenodd"/><path fill="#ce303f" d="M 78.523438 39.535156 C 78.285156 39.433594 78.011719 39.667969 77.910156 39.867188 C 77.902344 39.980469 77.8125 40.078125 77.695312 40.085938 C 77.566406 40.101562 77.449219 40.007812 77.4375 39.878906 C 77.476562 39.347656 78.148438 38.867188 78.75 39.117188 C 78.863281 39.179688 78.90625 39.324219 78.84375 39.4375 C 78.78125 39.550781 78.636719 39.59375 78.523438 39.53125 Z M 78.523438 39.535156 " fill-opacity="1" fill-rule="evenodd"/><path fill="#ce303f" d="M 80.070312 40.980469 C 80.25 40.796875 80.128906 40.460938 79.976562 40.289062 C 79.875 40.242188 79.816406 40.125 79.847656 40.011719 C 79.886719 39.886719 80.015625 39.8125 80.140625 39.847656 C 80.621094 40.078125 80.832031 40.875 80.375 41.339844 C 80.277344 41.421875 80.125 41.410156 80.042969 41.3125 C 79.957031 41.210938 79.96875 41.0625 80.070312 40.980469 Z M 80.070312 40.980469 " fill-opacity="1" fill-rule="evenodd"/><path fill="#ce303f" d="M 77.707031 41.429688 C 77.691406 41.6875 78 41.867188 78.226562 41.898438 C 78.335938 41.867188 78.457031 41.921875 78.503906 42.027344 C 78.558594 42.144531 78.507812 42.285156 78.390625 42.339844 C 77.875 42.476562 77.195312 42 77.238281 41.355469 C 77.261719 41.226562 77.382812 41.136719 77.511719 41.160156 C 77.640625 41.179688 77.730469 41.300781 77.707031 41.429688 Z M 77.707031 41.429688 " fill-opacity="1" fill-rule="evenodd"/><path fill="#ce303f" d="M 78.910156 33.578125 C 79.453125 33.53125 79.976562 33.179688 79.988281 32.589844 C 79.988281 32.460938 80.089844 32.355469 80.222656 32.355469 C 80.351562 32.351562 80.460938 32.457031 80.460938 32.585938 C 80.441406 33.460938 79.753906 33.976562 78.914062 34.050781 C 78.78125 34.050781 78.671875 33.945312 78.671875 33.816406 C 78.671875 33.6875 78.777344 33.578125 78.90625 33.578125 Z M 78.910156 33.578125 " fill-opacity="1" fill-rule="evenodd"/><path fill="#ce303f" d="M 79.246094 32.703125 C 79.351562 32.46875 79.117188 32.195312 78.914062 32.089844 C 78.800781 32.082031 78.710938 31.992188 78.699219 31.875 C 78.6875 31.746094 78.785156 31.632812 78.914062 31.621094 C 79.445312 31.664062 79.921875 32.339844 79.660156 32.933594 C 79.597656 33.046875 79.453125 33.089844 79.335938 33.023438 C 79.222656 32.960938 79.183594 32.816406 79.246094 32.703125 Z M 79.246094 32.703125 " fill-opacity="1" fill-rule="evenodd"/><path fill="#ce303f" d="M 79.804688 31.859375 C 79.777344 31.804688 79.746094 31.75 79.699219 31.710938 C 79.582031 31.667969 79.519531 31.539062 79.554688 31.421875 C 79.597656 31.296875 79.730469 31.226562 79.855469 31.265625 C 80.082031 31.371094 80.15625 31.492188 80.257812 31.71875 C 80.296875 31.84375 80.230469 31.976562 80.101562 32.015625 C 79.976562 32.054688 79.84375 31.984375 79.804688 31.859375 Z M 79.804688 31.859375 " fill-opacity="1" fill-rule="evenodd"/><path fill="#ce303f" d="M 79.105469 31.4375 C 78.332031 31.289062 77.984375 31.59375 77.75 32.273438 C 77.707031 32.394531 77.574219 32.460938 77.449219 32.421875 C 77.324219 32.378906 77.257812 32.246094 77.296875 32.121094 C 77.628906 31.164062 78.214844 30.785156 79.242188 30.984375 C 79.371094 31.023438 79.441406 31.152344 79.402344 31.277344 C 79.363281 31.402344 79.234375 31.472656 79.109375 31.4375 Z M 79.105469 31.4375 " fill-opacity="1" fill-rule="evenodd"/><path fill="#ce303f" d="M 78.972656 33.398438 C 78.773438 33.5 78.695312 33.496094 78.472656 33.449219 C 78.347656 33.417969 78.269531 33.289062 78.300781 33.164062 C 78.332031 33.039062 78.460938 32.960938 78.585938 32.992188 C 78.667969 33.007812 78.671875 33.023438 78.730469 32.992188 C 78.84375 32.925781 78.992188 32.964844 79.058594 33.074219 C 79.121094 33.1875 79.085938 33.332031 78.972656 33.398438 Z M 78.972656 33.398438 " fill-opacity="1" fill-rule="evenodd"/><path fill="#ce303f" d="M 77.890625 32.808594 C 77.828125 32.433594 77.8125 32.320312 78.09375 32.050781 C 78.195312 31.96875 78.34375 31.980469 78.425781 32.082031 C 78.507812 32.183594 78.496094 32.332031 78.394531 32.414062 C 78.277344 32.527344 78.324219 32.535156 78.359375 32.753906 C 78.375 32.882812 78.28125 33 78.152344 33.015625 C 78.023438 33.03125 77.902344 32.9375 77.890625 32.808594 Z M 77.890625 32.808594 " fill-opacity="1" fill-rule="evenodd"/><path fill="#ce303f" d="M 78.894531 32.3125 C 78.988281 32.378906 78.984375 32.378906 79.046875 32.484375 C 79.089844 32.605469 79.027344 32.742188 78.902344 32.785156 C 78.800781 32.820312 78.691406 32.78125 78.628906 32.699219 C 78.527344 32.628906 78.5 32.484375 78.566406 32.378906 C 78.640625 32.269531 78.785156 32.238281 78.894531 32.308594 Z M 78.894531 32.3125 " fill-opacity="1" fill-rule="evenodd"/><path fill="#ce303f" d="M 77.683594 33.027344 C 77.613281 33.273438 77.875 33.515625 78.089844 33.59375 C 78.203125 33.589844 78.308594 33.664062 78.332031 33.777344 C 78.359375 33.90625 78.28125 34.03125 78.152344 34.058594 C 77.617188 34.082031 77.058594 33.472656 77.246094 32.851562 C 77.292969 32.730469 77.429688 32.671875 77.554688 32.71875 C 77.675781 32.769531 77.734375 32.90625 77.683594 33.027344 Z M 77.683594 33.027344 " fill-opacity="1" fill-rule="evenodd"/><path fill="#ce303f" d="M 69.472656 38.5625 C 70.019531 38.515625 70.542969 38.167969 70.554688 37.578125 C 70.554688 37.445312 70.65625 37.339844 70.789062 37.339844 C 70.917969 37.335938 71.027344 37.441406 71.027344 37.570312 C 71.007812 38.445312 70.320312 38.960938 69.476562 39.035156 C 69.347656 39.035156 69.238281 38.933594 69.238281 38.800781 C 69.238281 38.671875 69.34375 38.566406 69.472656 38.5625 Z M 69.472656 38.5625 " fill-opacity="1" fill-rule="evenodd"/><path fill="#ce303f" d="M 69.8125 37.6875 C 69.917969 37.453125 69.683594 37.179688 69.480469 37.074219 C 69.367188 37.066406 69.273438 36.976562 69.265625 36.859375 C 69.253906 36.730469 69.347656 36.617188 69.480469 36.605469 C 70.011719 36.652344 70.488281 37.324219 70.226562 37.917969 C 70.164062 38.03125 70.019531 38.074219 69.902344 38.007812 C 69.789062 37.945312 69.75 37.800781 69.8125 37.6875 Z M 69.8125 37.6875 " fill-opacity="1" fill-rule="evenodd"/><path fill="#ce303f" d="M 70.371094 36.84375 C 70.347656 36.789062 70.3125 36.734375 70.265625 36.699219 C 70.148438 36.652344 70.085938 36.527344 70.121094 36.40625 C 70.164062 36.28125 70.296875 36.214844 70.421875 36.253906 C 70.648438 36.355469 70.722656 36.476562 70.828125 36.703125 C 70.867188 36.828125 70.796875 36.960938 70.671875 37 C 70.546875 37.039062 70.410156 36.96875 70.371094 36.84375 Z M 70.371094 36.84375 " fill-opacity="1" fill-rule="evenodd"/><path fill="#ce303f" d="M 69.671875 36.421875 C 68.898438 36.273438 68.550781 36.578125 68.316406 37.257812 C 68.273438 37.378906 68.140625 37.449219 68.015625 37.40625 C 67.890625 37.367188 67.824219 37.230469 67.863281 37.109375 C 68.195312 36.148438 68.78125 35.769531 69.808594 35.96875 C 69.9375 36.007812 70.007812 36.140625 69.96875 36.265625 C 69.929688 36.390625 69.800781 36.460938 69.671875 36.421875 Z M 69.671875 36.421875 " fill-opacity="1" fill-rule="evenodd"/><path fill="#ce303f" d="M 69.539062 38.382812 C 69.339844 38.484375 69.261719 38.484375 69.039062 38.433594 C 68.914062 38.402344 68.835938 38.277344 68.867188 38.148438 C 68.898438 38.023438 69.027344 37.945312 69.152344 37.976562 C 69.230469 37.996094 69.238281 38.007812 69.296875 37.976562 C 69.410156 37.910156 69.554688 37.949219 69.625 38.0625 C 69.6875 38.171875 69.652344 38.316406 69.539062 38.382812 Z M 69.539062 38.382812 " fill-opacity="1" fill-rule="evenodd"/><path fill="#ce303f" d="M 68.457031 37.792969 C 68.394531 37.421875 68.378906 37.304688 68.660156 37.035156 C 68.761719 36.953125 68.910156 36.96875 68.992188 37.070312 C 69.078125 37.167969 69.0625 37.316406 68.960938 37.402344 C 68.847656 37.511719 68.890625 37.519531 68.925781 37.738281 C 68.941406 37.867188 68.847656 37.984375 68.71875 38 C 68.589844 38.015625 68.472656 37.921875 68.457031 37.792969 Z M 68.457031 37.792969 " fill-opacity="1" fill-rule="evenodd"/><path fill="#ce303f" d="M 69.460938 37.296875 C 69.554688 37.363281 69.550781 37.363281 69.613281 37.46875 C 69.65625 37.589844 69.589844 37.726562 69.46875 37.769531 C 69.367188 37.804688 69.257812 37.769531 69.195312 37.6875 C 69.09375 37.613281 69.0625 37.472656 69.132812 37.363281 C 69.207031 37.253906 69.351562 37.222656 69.460938 37.296875 Z M 69.460938 37.296875 " fill-opacity="1" fill-rule="evenodd"/><path fill="#ce303f" d="M 68.25 38.011719 C 68.175781 38.257812 68.441406 38.5 68.65625 38.578125 C 68.769531 38.574219 68.875 38.648438 68.898438 38.765625 C 68.929688 38.890625 68.847656 39.015625 68.71875 39.042969 C 68.183594 39.066406 67.625 38.457031 67.808594 37.835938 C 67.859375 37.714844 67.996094 37.65625 68.121094 37.703125 C 68.242188 37.753906 68.300781 37.890625 68.25 38.011719 Z M 68.25 38.011719 " fill-opacity="1" fill-rule="evenodd"/><path fill="#ce303f" d="M 88.984375 35.410156 C 89.53125 35.359375 90.054688 35.011719 90.0625 34.421875 C 90.0625 34.292969 90.167969 34.1875 90.296875 34.183594 C 90.425781 34.183594 90.535156 34.289062 90.535156 34.417969 C 90.515625 35.292969 89.828125 35.808594 88.988281 35.882812 C 88.855469 35.882812 88.75 35.777344 88.746094 35.648438 C 88.746094 35.519531 88.851562 35.410156 88.980469 35.410156 Z M 88.984375 35.410156 " fill-opacity="1" fill-rule="evenodd"/><path fill="#ce303f" d="M 89.320312 34.535156 C 89.425781 34.300781 89.195312 34.027344 88.992188 33.921875 C 88.878906 33.914062 88.785156 33.824219 88.773438 33.707031 C 88.761719 33.578125 88.859375 33.464844 88.988281 33.453125 C 89.523438 33.496094 90 34.171875 89.738281 34.765625 C 89.671875 34.878906 89.527344 34.917969 89.414062 34.855469 C 89.296875 34.792969 89.257812 34.648438 89.320312 34.535156 Z M 89.320312 34.535156 " fill-opacity="1" fill-rule="evenodd"/><path fill="#ce303f" d="M 89.882812 33.691406 C 89.855469 33.636719 89.820312 33.582031 89.773438 33.542969 C 89.65625 33.5 89.59375 33.371094 89.632812 33.25 C 89.671875 33.125 89.804688 33.058594 89.929688 33.097656 C 90.15625 33.203125 90.230469 33.324219 90.335938 33.550781 C 90.375 33.671875 90.304688 33.804688 90.179688 33.84375 C 90.054688 33.882812 89.921875 33.816406 89.882812 33.691406 Z M 89.882812 33.691406 " fill-opacity="1" fill-rule="evenodd"/><path fill="#ce303f" d="M 89.183594 33.269531 C 88.40625 33.117188 88.058594 33.421875 87.824219 34.105469 C 87.785156 34.226562 87.648438 34.292969 87.523438 34.253906 C 87.398438 34.210938 87.332031 34.078125 87.375 33.953125 C 87.707031 32.996094 88.289062 32.617188 89.320312 32.816406 C 89.445312 32.855469 89.515625 32.984375 89.480469 33.109375 C 89.441406 33.234375 89.308594 33.304688 89.183594 33.269531 Z M 89.183594 33.269531 " fill-opacity="1" fill-rule="evenodd"/><path fill="#ce303f" d="M 89.046875 35.230469 C 88.847656 35.332031 88.769531 35.328125 88.546875 35.28125 C 88.421875 35.25 88.34375 35.121094 88.375 34.996094 C 88.40625 34.871094 88.535156 34.792969 88.660156 34.824219 C 88.742188 34.839844 88.746094 34.855469 88.804688 34.824219 C 88.921875 34.757812 89.066406 34.792969 89.132812 34.90625 C 89.199219 35.019531 89.160156 35.164062 89.046875 35.230469 Z M 89.046875 35.230469 " fill-opacity="1" fill-rule="evenodd"/><path fill="#ce303f" d="M 87.964844 34.640625 C 87.902344 34.265625 87.890625 34.152344 88.167969 33.882812 C 88.269531 33.800781 88.417969 33.8125 88.503906 33.914062 C 88.585938 34.015625 88.570312 34.164062 88.472656 34.246094 C 88.355469 34.355469 88.398438 34.367188 88.4375 34.585938 C 88.449219 34.714844 88.359375 34.832031 88.226562 34.847656 C 88.097656 34.859375 87.980469 34.769531 87.964844 34.640625 Z M 87.964844 34.640625 " fill-opacity="1" fill-rule="evenodd"/><path fill="#ce303f" d="M 88.96875 34.144531 C 89.0625 34.210938 89.058594 34.210938 89.121094 34.3125 C 89.164062 34.4375 89.101562 34.570312 88.976562 34.617188 C 88.875 34.652344 88.765625 34.613281 88.707031 34.53125 C 88.601562 34.460938 88.574219 34.316406 88.644531 34.210938 C 88.714844 34.101562 88.859375 34.070312 88.96875 34.140625 Z M 88.96875 34.144531 " fill-opacity="1" fill-rule="evenodd"/><path fill="#ce303f" d="M 87.761719 34.859375 C 87.6875 35.105469 87.953125 35.347656 88.164062 35.425781 C 88.277344 35.421875 88.382812 35.496094 88.410156 35.609375 C 88.4375 35.738281 88.355469 35.863281 88.226562 35.890625 C 87.695312 35.914062 87.136719 35.304688 87.320312 34.683594 C 87.367188 34.5625 87.507812 34.503906 87.628906 34.550781 C 87.75 34.597656 87.808594 34.738281 87.761719 34.859375 Z M 87.761719 34.859375 " fill-opacity="1" fill-rule="evenodd"/><path fill="#ce303f" d="M 92.507812 28.949219 C 92.730469 29.082031 93.03125 28.882812 93.160156 28.695312 C 93.179688 28.585938 93.28125 28.5 93.398438 28.503906 C 93.527344 28.507812 93.632812 28.617188 93.628906 28.746094 C 93.523438 29.265625 92.792969 29.660156 92.230469 29.332031 C 92.125 29.257812 92.101562 29.109375 92.175781 29.003906 C 92.253906 28.898438 92.402344 28.875 92.507812 28.949219 Z M 92.507812 28.949219 " fill-opacity="1" fill-rule="evenodd"/><path fill="#ce303f" d="M 93.289062 29.601562 C 93.34375 29.582031 93.402344 29.554688 93.445312 29.511719 C 93.503906 29.398438 93.640625 29.351562 93.753906 29.402344 C 93.875 29.457031 93.929688 29.597656 93.875 29.714844 C 93.742188 29.929688 93.613281 29.988281 93.375 30.0625 C 93.246094 30.089844 93.121094 30.003906 93.097656 29.875 C 93.074219 29.75 93.15625 29.625 93.285156 29.601562 Z M 93.289062 29.601562 " fill-opacity="1" fill-rule="evenodd"/><path fill="#ce303f" d="M 91.84375 28.601562 C 91.78125 28.4375 91.773438 28.355469 91.8125 28.21875 C 91.980469 28.234375 92.140625 28.246094 92.296875 28.261719 L 92.292969 28.269531 C 92.269531 28.34375 92.253906 28.347656 92.277344 28.410156 C 92.332031 28.53125 92.277344 28.671875 92.15625 28.722656 C 92.039062 28.777344 91.898438 28.722656 91.84375 28.601562 Z M 91.84375 28.601562 " fill-opacity="1" fill-rule="evenodd"/><path fill="#ce303f" d="M 92.941406 28.652344 C 92.863281 28.734375 92.863281 28.730469 92.75 28.777344 C 92.621094 28.808594 92.496094 28.730469 92.464844 28.601562 C 92.441406 28.5 92.492188 28.394531 92.578125 28.34375 C 92.597656 28.320312 92.621094 28.304688 92.648438 28.292969 C 92.738281 28.300781 92.820312 28.308594 92.902344 28.316406 L 92.910156 28.320312 C 93.011719 28.402344 93.023438 28.550781 92.941406 28.652344 Z M 92.941406 28.652344 " fill-opacity="1" fill-rule="evenodd"/><g clip-path="url(#82578b41bd)"><path fill="#ce303f" d="M 93.910156 28.820312 C 94.007812 28.71875 94.015625 28.570312 93.976562 28.429688 C 94.160156 28.449219 94.324219 28.472656 94.46875 28.496094 C 94.480469 28.738281 94.40625 28.988281 94.214844 29.179688 C 94.117188 29.265625 93.964844 29.253906 93.882812 29.152344 C 93.796875 29.054688 93.808594 28.90625 93.910156 28.820312 Z M 93.910156 28.820312 " fill-opacity="1" fill-rule="evenodd"/></g><path fill="#ce303f" d="M 91.550781 29.273438 C 91.53125 29.527344 91.84375 29.707031 92.066406 29.738281 C 92.175781 29.710938 92.296875 29.761719 92.34375 29.867188 C 92.402344 29.984375 92.347656 30.125 92.230469 30.179688 C 91.714844 30.316406 91.035156 29.84375 91.078125 29.195312 C 91.101562 29.066406 91.222656 28.980469 91.351562 29 C 91.480469 29.023438 91.570312 29.144531 91.546875 29.273438 Z M 91.550781 29.273438 " fill-opacity="1" fill-rule="evenodd"/><path fill="#ce303f" d="M 69.714844 31.5625 C 70.261719 31.511719 70.785156 31.164062 70.792969 30.574219 C 70.792969 30.445312 70.898438 30.335938 71.027344 30.335938 C 71.160156 30.335938 71.265625 30.441406 71.269531 30.570312 C 71.25 31.441406 70.5625 31.957031 69.71875 32.03125 C 69.589844 32.035156 69.480469 31.929688 69.480469 31.800781 C 69.480469 31.667969 69.585938 31.5625 69.714844 31.5625 Z M 69.714844 31.5625 " fill-opacity="1" fill-rule="evenodd"/><path fill="#ce303f" d="M 70.050781 30.6875 C 70.15625 30.453125 69.925781 30.179688 69.722656 30.074219 C 69.609375 30.066406 69.515625 29.976562 69.503906 29.859375 C 69.492188 29.730469 69.589844 29.613281 69.71875 29.605469 C 70.253906 29.648438 70.730469 30.324219 70.46875 30.917969 C 70.402344 31.03125 70.257812 31.070312 70.144531 31.007812 C 70.03125 30.945312 69.988281 30.800781 70.050781 30.6875 Z M 70.050781 30.6875 " fill-opacity="1" fill-rule="evenodd"/><path fill="#ce303f" d="M 70.613281 29.839844 C 70.585938 29.785156 70.554688 29.734375 70.503906 29.695312 C 70.386719 29.648438 70.324219 29.523438 70.363281 29.402344 C 70.402344 29.277344 70.535156 29.210938 70.660156 29.25 C 70.886719 29.355469 70.964844 29.476562 71.066406 29.703125 C 71.105469 29.824219 71.035156 29.957031 70.910156 29.996094 C 70.785156 30.035156 70.652344 29.964844 70.613281 29.839844 Z M 70.613281 29.839844 " fill-opacity="1" fill-rule="evenodd"/><path fill="#ce303f" d="M 69.914062 29.421875 C 69.136719 29.269531 68.789062 29.574219 68.554688 30.253906 C 68.515625 30.378906 68.378906 30.445312 68.253906 30.402344 C 68.132812 30.363281 68.0625 30.230469 68.105469 30.105469 C 68.4375 29.144531 69.023438 28.769531 70.050781 28.96875 C 70.175781 29.007812 70.246094 29.136719 70.210938 29.261719 C 70.171875 29.386719 70.039062 29.457031 69.914062 29.421875 Z M 69.914062 29.421875 " fill-opacity="1" fill-rule="evenodd"/><path fill="#ce303f" d="M 69.777344 31.378906 C 69.582031 31.484375 69.503906 31.480469 69.28125 31.433594 C 69.152344 31.402344 69.074219 31.273438 69.105469 31.148438 C 69.136719 31.019531 69.265625 30.945312 69.394531 30.976562 C 69.472656 30.992188 69.476562 31.007812 69.539062 30.972656 C 69.652344 30.90625 69.796875 30.945312 69.863281 31.058594 C 69.929688 31.171875 69.890625 31.316406 69.777344 31.382812 Z M 69.777344 31.378906 " fill-opacity="1" fill-rule="evenodd"/><path fill="#ce303f" d="M 68.695312 30.792969 C 68.632812 30.417969 68.621094 30.300781 68.902344 30.035156 C 69 29.953125 69.152344 29.964844 69.234375 30.066406 C 69.316406 30.164062 69.304688 30.316406 69.203125 30.398438 C 69.085938 30.507812 69.132812 30.515625 69.167969 30.734375 C 69.183594 30.863281 69.089844 30.980469 68.960938 30.996094 C 68.828125 31.011719 68.710938 30.917969 68.695312 30.789062 Z M 68.695312 30.792969 " fill-opacity="1" fill-rule="evenodd"/><path fill="#ce303f" d="M 69.703125 30.292969 C 69.796875 30.359375 69.789062 30.359375 69.851562 30.464844 C 69.894531 30.585938 69.832031 30.722656 69.710938 30.765625 C 69.609375 30.800781 69.496094 30.765625 69.4375 30.683594 C 69.332031 30.609375 69.304688 30.46875 69.375 30.363281 C 69.445312 30.253906 69.59375 30.222656 69.703125 30.292969 Z M 69.703125 30.292969 " fill-opacity="1" fill-rule="evenodd"/><path fill="#ce303f" d="M 68.492188 31.007812 C 68.417969 31.253906 68.683594 31.496094 68.898438 31.578125 C 69.011719 31.570312 69.113281 31.648438 69.140625 31.761719 C 69.167969 31.886719 69.085938 32.015625 68.957031 32.042969 C 68.425781 32.0625 67.867188 31.457031 68.050781 30.832031 C 68.097656 30.710938 68.238281 30.65625 68.359375 30.703125 C 68.480469 30.75 68.539062 30.890625 68.492188 31.011719 Z M 68.492188 31.007812 " fill-opacity="1" fill-rule="evenodd"/><path fill="#ce303f" d="M 63.140625 48.050781 C 63.6875 48.003906 64.210938 47.652344 64.21875 47.066406 C 64.21875 46.933594 64.324219 46.828125 64.453125 46.824219 C 64.585938 46.824219 64.691406 46.929688 64.695312 47.058594 C 64.675781 47.933594 63.988281 48.449219 63.144531 48.523438 C 63.015625 48.523438 62.90625 48.417969 62.90625 48.289062 C 62.902344 48.160156 63.007812 48.050781 63.140625 48.050781 Z M 63.140625 48.050781 " fill-opacity="1" fill-rule="evenodd"/><path fill="#ce303f" d="M 63.476562 47.175781 C 63.582031 46.941406 63.351562 46.667969 63.148438 46.5625 C 63.035156 46.554688 62.941406 46.464844 62.929688 46.347656 C 62.917969 46.21875 63.015625 46.105469 63.144531 46.09375 C 63.679688 46.140625 64.15625 46.8125 63.894531 47.40625 C 63.828125 47.519531 63.683594 47.5625 63.570312 47.496094 C 63.457031 47.433594 63.414062 47.289062 63.476562 47.175781 Z M 63.476562 47.175781 " fill-opacity="1" fill-rule="evenodd"/><path fill="#ce303f" d="M 64.039062 46.332031 C 64.011719 46.277344 63.980469 46.222656 63.929688 46.183594 C 63.8125 46.140625 63.75 46.015625 63.789062 45.894531 C 63.828125 45.769531 63.960938 45.699219 64.085938 45.738281 C 64.316406 45.84375 64.390625 45.964844 64.492188 46.191406 C 64.53125 46.316406 64.460938 46.449219 64.335938 46.488281 C 64.210938 46.527344 64.078125 46.457031 64.039062 46.332031 Z M 64.039062 46.332031 " fill-opacity="1" fill-rule="evenodd"/><path fill="#ce303f" d="M 63.339844 45.910156 C 62.5625 45.761719 62.214844 46.066406 61.980469 46.746094 C 61.941406 46.867188 61.804688 46.9375 61.679688 46.894531 C 61.558594 46.851562 61.488281 46.71875 61.53125 46.59375 C 61.863281 45.636719 62.449219 45.257812 63.476562 45.457031 C 63.601562 45.496094 63.671875 45.628906 63.636719 45.753906 C 63.597656 45.878906 63.464844 45.949219 63.339844 45.910156 Z M 63.339844 45.910156 " fill-opacity="1" fill-rule="evenodd"/><path fill="#ce303f" d="M 63.203125 47.871094 C 63.007812 47.976562 62.929688 47.972656 62.707031 47.925781 C 62.578125 47.894531 62.5 47.765625 62.53125 47.640625 C 62.5625 47.511719 62.691406 47.433594 62.820312 47.464844 C 62.898438 47.484375 62.902344 47.496094 62.964844 47.464844 C 63.078125 47.398438 63.222656 47.4375 63.289062 47.550781 C 63.355469 47.664062 63.316406 47.804688 63.203125 47.871094 Z M 63.203125 47.871094 " fill-opacity="1" fill-rule="evenodd"/><path fill="#ce303f" d="M 62.121094 47.28125 C 62.058594 46.910156 62.046875 46.792969 62.324219 46.523438 C 62.425781 46.441406 62.578125 46.457031 62.660156 46.554688 C 62.742188 46.65625 62.730469 46.804688 62.628906 46.886719 C 62.511719 47 62.558594 47.007812 62.59375 47.226562 C 62.609375 47.355469 62.515625 47.472656 62.382812 47.488281 C 62.253906 47.503906 62.136719 47.410156 62.121094 47.28125 Z M 62.121094 47.28125 " fill-opacity="1" fill-rule="evenodd"/><path fill="#ce303f" d="M 63.128906 46.785156 C 63.222656 46.851562 63.214844 46.851562 63.277344 46.957031 C 63.320312 47.078125 63.257812 47.214844 63.136719 47.257812 C 63.035156 47.292969 62.921875 47.257812 62.863281 47.175781 C 62.757812 47.101562 62.730469 46.960938 62.800781 46.851562 C 62.871094 46.746094 63.019531 46.714844 63.128906 46.785156 Z M 63.128906 46.785156 " fill-opacity="1" fill-rule="evenodd"/><path fill="#ce303f" d="M 61.917969 47.5 C 61.84375 47.746094 62.109375 47.988281 62.324219 48.066406 C 62.4375 48.0625 62.539062 48.140625 62.566406 48.253906 C 62.59375 48.378906 62.511719 48.507812 62.382812 48.535156 C 61.851562 48.554688 61.292969 47.949219 61.476562 47.324219 C 61.523438 47.203125 61.664062 47.144531 61.785156 47.195312 C 61.90625 47.242188 61.964844 47.378906 61.917969 47.5 Z M 61.917969 47.5 " fill-opacity="1" fill-rule="evenodd"/><path fill="#ce303f" d="M 60.03125 38.851562 C 60.253906 38.980469 60.554688 38.78125 60.683594 38.59375 C 60.707031 38.484375 60.804688 38.402344 60.921875 38.40625 C 61.050781 38.40625 61.15625 38.515625 61.152344 38.644531 C 61.046875 39.167969 60.320312 39.5625 59.753906 39.234375 C 59.648438 39.15625 59.625 39.011719 59.699219 38.90625 C 59.777344 38.800781 59.925781 38.773438 60.03125 38.851562 Z M 60.03125 38.851562 " fill-opacity="1" fill-rule="evenodd"/><path fill="#ce303f" d="M 60.8125 39.5 C 60.871094 39.480469 60.929688 39.453125 60.972656 39.410156 C 61.027344 39.300781 61.164062 39.253906 61.28125 39.304688 C 61.398438 39.355469 61.453125 39.496094 61.398438 39.613281 C 61.269531 39.828125 61.140625 39.886719 60.898438 39.964844 C 60.769531 39.988281 60.648438 39.902344 60.621094 39.777344 C 60.597656 39.648438 60.683594 39.523438 60.8125 39.5 Z M 60.8125 39.5 " fill-opacity="1" fill-rule="evenodd"/><path fill="#ce303f" d="M 59.371094 38.503906 C 59.289062 38.296875 59.300781 38.21875 59.375 38.003906 C 59.417969 37.882812 59.554688 37.820312 59.679688 37.863281 C 59.800781 37.910156 59.863281 38.046875 59.820312 38.167969 C 59.792969 38.242188 59.777344 38.246094 59.804688 38.3125 C 59.859375 38.429688 59.804688 38.570312 59.683594 38.621094 C 59.5625 38.675781 59.421875 38.621094 59.371094 38.5 Z M 59.371094 38.503906 " fill-opacity="1" fill-rule="evenodd"/><path fill="#ce303f" d="M 60.082031 37.5 C 60.460938 37.480469 60.578125 37.480469 60.816406 37.789062 C 60.886719 37.898438 60.855469 38.042969 60.746094 38.113281 C 60.636719 38.183594 60.488281 38.152344 60.417969 38.042969 C 60.320312 37.917969 60.304688 37.960938 60.082031 37.972656 C 59.953125 37.972656 59.847656 37.867188 59.84375 37.738281 C 59.84375 37.605469 59.949219 37.5 60.082031 37.5 Z M 60.082031 37.5 " fill-opacity="1" fill-rule="evenodd"/><path fill="#ce303f" d="M 60.464844 38.550781 C 60.386719 38.636719 60.386719 38.628906 60.273438 38.679688 C 60.148438 38.707031 60.019531 38.628906 59.988281 38.503906 C 59.964844 38.398438 60.015625 38.292969 60.105469 38.246094 C 60.1875 38.148438 60.332031 38.136719 60.433594 38.21875 C 60.535156 38.300781 60.546875 38.453125 60.464844 38.550781 Z M 60.464844 38.550781 " fill-opacity="1" fill-rule="evenodd"/><path fill="#ce303f" d="M 59.886719 37.273438 C 59.648438 37.171875 59.375 37.40625 59.273438 37.609375 C 59.265625 37.722656 59.179688 37.816406 59.0625 37.828125 C 58.929688 37.839844 58.8125 37.746094 58.800781 37.617188 C 58.839844 37.085938 59.511719 36.605469 60.113281 36.859375 C 60.226562 36.921875 60.269531 37.0625 60.207031 37.179688 C 60.144531 37.292969 60.003906 37.335938 59.886719 37.273438 Z M 59.886719 37.273438 " fill-opacity="1" fill-rule="evenodd"/><path fill="#ce303f" d="M 61.433594 38.71875 C 61.613281 38.535156 61.496094 38.199219 61.34375 38.03125 C 61.238281 37.984375 61.183594 37.867188 61.214844 37.753906 C 61.25 37.628906 61.378906 37.554688 61.507812 37.589844 C 61.988281 37.816406 62.195312 38.613281 61.742188 39.078125 C 61.640625 39.164062 61.492188 39.152344 61.40625 39.050781 C 61.320312 38.953125 61.332031 38.804688 61.433594 38.71875 Z M 61.433594 38.71875 " fill-opacity="1" fill-rule="evenodd"/><path fill="#ce303f" d="M 59.074219 39.171875 C 59.054688 39.429688 59.367188 39.609375 59.59375 39.640625 C 59.703125 39.609375 59.820312 39.664062 59.871094 39.769531 C 59.925781 39.886719 59.875 40.027344 59.753906 40.082031 C 59.238281 40.214844 58.558594 39.742188 58.605469 39.09375 C 58.625 38.964844 58.75 38.878906 58.878906 38.902344 C 59.007812 38.921875 59.09375 39.042969 59.074219 39.171875 Z M 59.074219 39.171875 " fill-opacity="1" fill-rule="evenodd"/><path fill="#ce303f" d="M 49.496094 29.132812 C 49.671875 28.941406 49.539062 28.609375 49.378906 28.445312 C 49.273438 28.402344 49.214844 28.285156 49.242188 28.171875 C 49.273438 28.046875 49.398438 27.96875 49.527344 28 C 50.015625 28.210938 50.253906 29 49.816406 29.480469 C 49.71875 29.566406 49.566406 29.558594 49.480469 29.464844 C 49.390625 29.367188 49.398438 29.21875 49.496094 29.128906 Z M 49.496094 29.132812 " fill-opacity="1" fill-rule="evenodd"/><path fill="#ce303f" d="M 50.296875 28.507812 C 50.289062 28.445312 50.277344 28.382812 50.242188 28.332031 C 50.144531 28.253906 50.128906 28.113281 50.203125 28.011719 C 50.277344 27.90625 50.425781 27.882812 50.535156 27.960938 C 50.714844 28.132812 50.746094 28.269531 50.773438 28.515625 C 50.769531 28.648438 50.660156 28.75 50.53125 28.746094 C 50.398438 28.746094 50.296875 28.636719 50.296875 28.507812 Z M 50.296875 28.507812 " fill-opacity="1" fill-rule="evenodd"/><path fill="#ce303f" d="M 49.015625 29.703125 C 48.792969 29.738281 48.71875 29.710938 48.523438 29.59375 C 48.414062 29.523438 48.382812 29.378906 48.453125 29.269531 C 48.523438 29.160156 48.667969 29.125 48.777344 29.195312 C 48.847656 29.238281 48.847656 29.253906 48.917969 29.242188 C 49.046875 29.214844 49.171875 29.296875 49.199219 29.421875 C 49.226562 29.550781 49.144531 29.675781 49.015625 29.703125 Z M 49.015625 29.703125 " fill-opacity="1" fill-rule="evenodd"/><path fill="#ce303f" d="M 48.175781 28.800781 C 48.238281 28.425781 48.261719 28.3125 48.613281 28.148438 C 48.734375 28.101562 48.871094 28.164062 48.917969 28.285156 C 48.964844 28.40625 48.90625 28.542969 48.78125 28.589844 C 48.636719 28.65625 48.675781 28.679688 48.640625 28.898438 C 48.613281 29.027344 48.488281 29.105469 48.359375 29.082031 C 48.230469 29.054688 48.148438 28.929688 48.175781 28.800781 Z M 48.175781 28.800781 " fill-opacity="1" fill-rule="evenodd"/><path fill="#ce303f" d="M 49.289062 28.648438 C 49.359375 28.742188 49.351562 28.738281 49.375 28.859375 C 49.378906 28.988281 49.277344 29.097656 49.144531 29.097656 C 49.035156 29.101562 48.945312 29.03125 48.914062 28.933594 C 48.835938 28.832031 48.855469 28.6875 48.957031 28.609375 C 49.058594 28.527344 49.207031 28.546875 49.289062 28.648438 Z M 49.289062 28.648438 " fill-opacity="1" fill-rule="evenodd"/><path fill="#ce303f" d="M 47.914062 28.945312 C 47.765625 29.152344 47.9375 29.464844 48.117188 29.609375 C 48.226562 29.640625 48.300781 29.746094 48.289062 29.863281 C 48.273438 29.992188 48.15625 30.085938 48.027344 30.070312 C 47.511719 29.921875 47.175781 29.167969 47.550781 28.636719 C 47.636719 28.539062 47.785156 28.527344 47.886719 28.613281 C 47.988281 28.695312 48 28.84375 47.914062 28.945312 Z M 47.914062 28.945312 " fill-opacity="1" fill-rule="evenodd"/><path fill="#ce303f" d="M 49.65625 27.742188 C 49.515625 27.527344 49.160156 27.574219 48.960938 27.6875 C 48.890625 27.777344 48.765625 27.808594 48.660156 27.753906 C 48.546875 27.695312 48.5 27.550781 48.558594 27.4375 C 48.886719 27.015625 49.714844 26.976562 50.078125 27.519531 C 50.136719 27.632812 50.09375 27.777344 49.980469 27.835938 C 49.863281 27.898438 49.71875 27.855469 49.65625 27.742188 Z M 49.65625 27.742188 " fill-opacity="1" fill-rule="evenodd"/><path fill="#ce303f" d="M 49.613281 30.128906 C 49.859375 30.199219 50.101562 29.933594 50.179688 29.71875 C 50.171875 29.609375 50.25 29.503906 50.363281 29.476562 C 50.492188 29.449219 50.617188 29.527344 50.648438 29.652344 C 50.671875 30.183594 50.066406 30.746094 49.4375 30.566406 C 49.316406 30.519531 49.257812 30.382812 49.304688 30.261719 C 49.351562 30.140625 49.488281 30.078125 49.613281 30.125 Z M 49.613281 30.128906 " fill-opacity="1" fill-rule="evenodd"/><path fill="#ce303f" d="M 53.101562 35.035156 C 53.648438 34.988281 54.171875 34.636719 54.183594 34.050781 C 54.179688 33.917969 54.285156 33.8125 54.417969 33.8125 C 54.546875 33.808594 54.65625 33.914062 54.65625 34.042969 C 54.636719 34.917969 53.949219 35.433594 53.105469 35.507812 C 52.976562 35.507812 52.867188 35.402344 52.867188 35.273438 C 52.863281 35.144531 52.96875 35.039062 53.101562 35.035156 Z M 53.101562 35.035156 " fill-opacity="1" fill-rule="evenodd"/><path fill="#ce303f" d="M 53.441406 34.160156 C 53.542969 33.925781 53.3125 33.652344 53.109375 33.546875 C 52.996094 33.539062 52.902344 33.449219 52.890625 33.332031 C 52.882812 33.203125 52.976562 33.089844 53.109375 33.078125 C 53.640625 33.125 54.117188 33.796875 53.855469 34.390625 C 53.789062 34.503906 53.644531 34.546875 53.53125 34.480469 C 53.417969 34.417969 53.375 34.273438 53.441406 34.160156 Z M 53.441406 34.160156 " fill-opacity="1" fill-rule="evenodd"/><path fill="#ce303f" d="M 54 33.316406 C 53.972656 33.261719 53.941406 33.207031 53.894531 33.167969 C 53.777344 33.125 53.710938 32.996094 53.75 32.878906 C 53.789062 32.753906 53.925781 32.683594 54.050781 32.722656 C 54.277344 32.828125 54.351562 32.949219 54.453125 33.175781 C 54.492188 33.300781 54.425781 33.433594 54.296875 33.472656 C 54.171875 33.511719 54.039062 33.441406 54 33.316406 Z M 54 33.316406 " fill-opacity="1" fill-rule="evenodd"/><path fill="#ce303f" d="M 53.300781 32.894531 C 52.523438 32.746094 52.179688 33.050781 51.941406 33.730469 C 51.902344 33.851562 51.765625 33.921875 51.640625 33.878906 C 51.519531 33.835938 51.449219 33.703125 51.492188 33.578125 C 51.824219 32.621094 52.410156 32.242188 53.4375 32.441406 C 53.5625 32.480469 53.632812 32.613281 53.597656 32.738281 C 53.558594 32.863281 53.425781 32.933594 53.300781 32.894531 Z M 53.300781 32.894531 " fill-opacity="1" fill-rule="evenodd"/><path fill="#ce303f" d="M 53.167969 34.855469 C 52.96875 34.957031 52.890625 34.953125 52.667969 34.90625 C 52.539062 34.875 52.460938 34.75 52.492188 34.621094 C 52.523438 34.496094 52.652344 34.417969 52.78125 34.449219 C 52.859375 34.464844 52.863281 34.480469 52.925781 34.449219 C 53.039062 34.382812 53.183594 34.421875 53.25 34.53125 C 53.316406 34.644531 53.28125 34.789062 53.167969 34.855469 Z M 53.167969 34.855469 " fill-opacity="1" fill-rule="evenodd"/><path fill="#ce303f" d="M 52.082031 34.265625 C 52.023438 33.890625 52.007812 33.777344 52.285156 33.507812 C 52.386719 33.425781 52.539062 33.441406 52.621094 33.539062 C 52.703125 33.640625 52.691406 33.789062 52.589844 33.871094 C 52.472656 33.984375 52.519531 33.992188 52.554688 34.210938 C 52.566406 34.339844 52.476562 34.457031 52.34375 34.472656 C 52.214844 34.488281 52.097656 34.394531 52.082031 34.265625 Z M 52.082031 34.265625 " fill-opacity="1" fill-rule="evenodd"/><path fill="#ce303f" d="M 53.089844 33.769531 C 53.183594 33.835938 53.175781 33.835938 53.238281 33.941406 C 53.285156 34.0625 53.21875 34.199219 53.097656 34.242188 C 52.996094 34.277344 52.886719 34.242188 52.824219 34.15625 C 52.71875 34.085938 52.691406 33.941406 52.761719 33.835938 C 52.832031 33.726562 52.980469 33.695312 53.089844 33.765625 Z M 53.089844 33.769531 " fill-opacity="1" fill-rule="evenodd"/><path fill="#ce303f" d="M 51.878906 34.484375 C 51.804688 34.730469 52.070312 34.972656 52.285156 35.050781 C 52.398438 35.046875 52.503906 35.121094 52.527344 35.234375 C 52.554688 35.363281 52.476562 35.488281 52.347656 35.519531 C 51.8125 35.539062 51.253906 34.929688 51.4375 34.308594 C 51.488281 34.1875 51.625 34.128906 51.746094 34.179688 C 51.871094 34.226562 51.925781 34.363281 51.878906 34.484375 Z M 51.878906 34.484375 " fill-opacity="1" fill-rule="evenodd"/><path fill="#ce303f" d="M 43.855469 37.523438 C 44.402344 37.472656 44.925781 37.125 44.933594 36.535156 C 44.933594 36.40625 45.039062 36.296875 45.167969 36.296875 C 45.300781 36.296875 45.40625 36.402344 45.40625 36.53125 C 45.390625 37.402344 44.699219 37.917969 43.859375 37.992188 C 43.726562 37.996094 43.621094 37.890625 43.617188 37.761719 C 43.617188 37.628906 43.722656 37.523438 43.851562 37.523438 Z M 43.855469 37.523438 " fill-opacity="1" fill-rule="evenodd"/><path fill="#ce303f" d="M 44.191406 36.648438 C 44.296875 36.414062 44.066406 36.140625 43.863281 36.035156 C 43.75 36.027344 43.65625 35.9375 43.644531 35.820312 C 43.632812 35.691406 43.730469 35.574219 43.859375 35.5625 C 44.390625 35.609375 44.867188 36.285156 44.605469 36.878906 C 44.542969 36.992188 44.398438 37.03125 44.285156 36.96875 C 44.167969 36.90625 44.128906 36.761719 44.191406 36.648438 Z M 44.191406 36.648438 " fill-opacity="1" fill-rule="evenodd"/><path fill="#ce303f" d="M 44.753906 35.804688 C 44.726562 35.746094 44.695312 35.695312 44.644531 35.65625 C 44.527344 35.609375 44.464844 35.484375 44.503906 35.363281 C 44.542969 35.238281 44.675781 35.171875 44.800781 35.210938 C 45.027344 35.316406 45.105469 35.433594 45.207031 35.660156 C 45.246094 35.785156 45.175781 35.917969 45.050781 35.957031 C 44.925781 35.996094 44.792969 35.925781 44.753906 35.800781 Z M 44.753906 35.804688 " fill-opacity="1" fill-rule="evenodd"/><path fill="#ce303f" d="M 44.050781 35.382812 C 43.277344 35.230469 42.929688 35.535156 42.695312 36.214844 C 42.652344 36.339844 42.519531 36.40625 42.394531 36.363281 C 42.269531 36.324219 42.203125 36.191406 42.246094 36.066406 C 42.578125 35.105469 43.160156 34.730469 44.191406 34.929688 C 44.316406 34.96875 44.386719 35.097656 44.347656 35.222656 C 44.3125 35.347656 44.179688 35.417969 44.054688 35.382812 Z M 44.050781 35.382812 " fill-opacity="1" fill-rule="evenodd"/><path fill="#ce303f" d="M 43.917969 37.339844 C 43.722656 37.445312 43.644531 37.441406 43.417969 37.394531 C 43.292969 37.363281 43.214844 37.234375 43.246094 37.109375 C 43.277344 36.980469 43.40625 36.90625 43.53125 36.9375 C 43.613281 36.953125 43.617188 36.96875 43.679688 36.933594 C 43.792969 36.871094 43.9375 36.90625 44.003906 37.019531 C 44.070312 37.132812 44.03125 37.277344 43.917969 37.34375 Z M 43.917969 37.339844 " fill-opacity="1" fill-rule="evenodd"/><path fill="#ce303f" d="M 42.835938 36.753906 C 42.773438 36.378906 42.761719 36.261719 43.039062 35.996094 C 43.140625 35.910156 43.289062 35.925781 43.375 36.027344 C 43.457031 36.128906 43.445312 36.277344 43.34375 36.359375 C 43.226562 36.46875 43.273438 36.480469 43.308594 36.699219 C 43.324219 36.828125 43.230469 36.945312 43.097656 36.957031 C 42.96875 36.972656 42.851562 36.882812 42.835938 36.753906 Z M 42.835938 36.753906 " fill-opacity="1" fill-rule="evenodd"/><path fill="#ce303f" d="M 43.84375 36.253906 C 43.933594 36.320312 43.929688 36.320312 43.992188 36.425781 C 44.035156 36.546875 43.972656 36.683594 43.847656 36.726562 C 43.746094 36.761719 43.636719 36.726562 43.578125 36.644531 C 43.472656 36.570312 43.445312 36.429688 43.515625 36.320312 C 43.585938 36.214844 43.730469 36.183594 43.84375 36.253906 Z M 43.84375 36.253906 " fill-opacity="1" fill-rule="evenodd"/><path fill="#ce303f" d="M 42.632812 36.96875 C 42.558594 37.214844 42.820312 37.460938 43.035156 37.539062 C 43.148438 37.53125 43.253906 37.609375 43.28125 37.722656 C 43.308594 37.847656 43.226562 37.976562 43.097656 38.003906 C 42.5625 38.027344 42.003906 37.417969 42.191406 36.796875 C 42.238281 36.671875 42.378906 36.617188 42.5 36.664062 C 42.621094 36.710938 42.679688 36.851562 42.632812 36.972656 Z M 42.632812 36.96875 " fill-opacity="1" fill-rule="evenodd"/><path fill="#ce303f" d="M 44.628906 42.941406 C 44.804688 42.75 44.671875 42.417969 44.511719 42.253906 C 44.410156 42.210938 44.347656 42.097656 44.375 41.984375 C 44.40625 41.855469 44.535156 41.777344 44.660156 41.808594 C 45.152344 42.019531 45.386719 42.808594 44.949219 43.289062 C 44.851562 43.378906 44.703125 43.371094 44.613281 43.273438 C 44.523438 43.175781 44.53125 43.027344 44.628906 42.941406 Z M 44.628906 42.941406 " fill-opacity="1" fill-rule="evenodd"/><path fill="#ce303f" d="M 45.429688 42.316406 C 45.425781 42.253906 45.410156 42.195312 45.375 42.140625 C 45.277344 42.0625 45.261719 41.921875 45.335938 41.820312 C 45.414062 41.714844 45.5625 41.691406 45.667969 41.769531 C 45.847656 41.941406 45.882812 42.078125 45.90625 42.328125 C 45.902344 42.457031 45.796875 42.558594 45.664062 42.558594 C 45.535156 42.554688 45.429688 42.445312 45.429688 42.316406 Z M 45.429688 42.316406 " fill-opacity="1" fill-rule="evenodd"/><path fill="#ce303f" d="M 44.148438 43.511719 C 43.929688 43.546875 43.855469 43.519531 43.660156 43.402344 C 43.546875 43.335938 43.515625 43.1875 43.585938 43.078125 C 43.65625 42.96875 43.800781 42.9375 43.914062 43.007812 C 43.980469 43.046875 43.980469 43.0625 44.050781 43.050781 C 44.179688 43.023438 44.304688 43.105469 44.332031 43.234375 C 44.359375 43.359375 44.277344 43.484375 44.148438 43.511719 Z M 44.148438 43.511719 " fill-opacity="1" fill-rule="evenodd"/><path fill="#ce303f" d="M 43.308594 42.609375 C 43.371094 42.238281 43.394531 42.125 43.746094 41.957031 C 43.867188 41.910156 44.003906 41.972656 44.050781 42.09375 C 44.097656 42.214844 44.039062 42.351562 43.917969 42.398438 C 43.769531 42.46875 43.808594 42.492188 43.773438 42.707031 C 43.75 42.835938 43.621094 42.917969 43.492188 42.890625 C 43.363281 42.863281 43.28125 42.738281 43.308594 42.613281 Z M 43.308594 42.609375 " fill-opacity="1" fill-rule="evenodd"/><path fill="#ce303f" d="M 44.421875 42.457031 C 44.492188 42.550781 44.484375 42.546875 44.511719 42.667969 C 44.511719 42.796875 44.410156 42.90625 44.277344 42.910156 C 44.171875 42.910156 44.078125 42.839844 44.046875 42.742188 C 43.972656 42.640625 43.988281 42.5 44.089844 42.417969 C 44.191406 42.339844 44.339844 42.355469 44.421875 42.457031 Z M 44.421875 42.457031 " fill-opacity="1" fill-rule="evenodd"/><path fill="#ce303f" d="M 43.046875 42.753906 C 42.898438 42.964844 43.070312 43.277344 43.25 43.417969 C 43.359375 43.449219 43.433594 43.554688 43.421875 43.671875 C 43.40625 43.800781 43.289062 43.894531 43.160156 43.878906 C 42.648438 43.734375 42.3125 42.980469 42.6875 42.449219 C 42.769531 42.347656 42.921875 42.335938 43.019531 42.421875 C 43.121094 42.507812 43.132812 42.65625 43.046875 42.753906 Z M 43.046875 42.753906 " fill-opacity="1" fill-rule="evenodd"/><path fill="#ce303f" d="M 44.792969 41.550781 C 44.648438 41.335938 44.292969 41.382812 44.09375 41.496094 C 44.023438 41.585938 43.898438 41.617188 43.796875 41.5625 C 43.679688 41.503906 43.632812 41.359375 43.695312 41.246094 C 44.019531 40.824219 44.847656 40.789062 45.210938 41.328125 C 45.273438 41.441406 45.230469 41.585938 45.113281 41.648438 C 44.996094 41.710938 44.855469 41.667969 44.792969 41.550781 Z M 44.792969 41.550781 " fill-opacity="1" fill-rule="evenodd"/><path fill="#ce303f" d="M 44.746094 43.9375 C 44.996094 44.007812 45.234375 43.742188 45.3125 43.53125 C 45.308594 43.417969 45.382812 43.3125 45.496094 43.285156 C 45.625 43.257812 45.753906 43.335938 45.78125 43.464844 C 45.808594 43.992188 45.199219 44.554688 44.574219 44.375 C 44.449219 44.328125 44.390625 44.191406 44.4375 44.070312 C 44.484375 43.949219 44.625 43.890625 44.746094 43.9375 Z M 44.746094 43.9375 " fill-opacity="1" fill-rule="evenodd"/><path fill="#ce303f" d="M 36.6875 43.640625 C 36.863281 43.453125 36.730469 43.121094 36.570312 42.957031 C 36.464844 42.910156 36.40625 42.796875 36.433594 42.683594 C 36.464844 42.558594 36.589844 42.480469 36.71875 42.507812 C 37.207031 42.722656 37.445312 43.511719 37.007812 43.992188 C 36.910156 44.078125 36.757812 44.070312 36.671875 43.976562 C 36.582031 43.878906 36.589844 43.730469 36.6875 43.640625 Z M 36.6875 43.640625 " fill-opacity="1" fill-rule="evenodd"/><path fill="#ce303f" d="M 37.488281 43.019531 C 37.480469 42.957031 37.464844 42.894531 37.433594 42.84375 C 37.335938 42.765625 37.316406 42.625 37.390625 42.523438 C 37.46875 42.417969 37.617188 42.394531 37.722656 42.472656 C 37.90625 42.644531 37.9375 42.78125 37.964844 43.03125 C 37.960938 43.160156 37.851562 43.261719 37.722656 43.261719 C 37.589844 43.257812 37.484375 43.148438 37.488281 43.019531 Z M 37.488281 43.019531 " fill-opacity="1" fill-rule="evenodd"/><path fill="#ce303f" d="M 36.203125 44.214844 C 35.984375 44.25 35.910156 44.222656 35.714844 44.105469 C 35.605469 44.035156 35.570312 43.890625 35.640625 43.78125 C 35.710938 43.671875 35.859375 43.636719 35.96875 43.707031 C 36.039062 43.75 36.039062 43.761719 36.105469 43.75 C 36.234375 43.726562 36.359375 43.808594 36.390625 43.933594 C 36.414062 44.0625 36.332031 44.1875 36.207031 44.214844 Z M 36.203125 44.214844 " fill-opacity="1" fill-rule="evenodd"/><path fill="#ce303f" d="M 35.367188 43.3125 C 35.429688 42.9375 35.453125 42.824219 35.804688 42.660156 C 35.925781 42.613281 36.0625 42.671875 36.109375 42.792969 C 36.15625 42.917969 36.097656 43.050781 35.972656 43.101562 C 35.828125 43.167969 35.867188 43.191406 35.832031 43.410156 C 35.804688 43.539062 35.679688 43.621094 35.550781 43.59375 C 35.421875 43.566406 35.339844 43.441406 35.367188 43.3125 Z M 35.367188 43.3125 " fill-opacity="1" fill-rule="evenodd"/><path fill="#ce303f" d="M 36.480469 43.160156 C 36.546875 43.25 36.542969 43.25 36.566406 43.367188 C 36.570312 43.5 36.464844 43.605469 36.335938 43.609375 C 36.226562 43.613281 36.132812 43.542969 36.101562 43.445312 C 36.027344 43.34375 36.046875 43.199219 36.148438 43.121094 C 36.25 43.039062 36.398438 43.054688 36.480469 43.160156 Z M 36.480469 43.160156 " fill-opacity="1" fill-rule="evenodd"/><path fill="#ce303f" d="M 35.105469 43.453125 C 34.957031 43.664062 35.128906 43.976562 35.308594 44.121094 C 35.417969 44.152344 35.492188 44.257812 35.480469 44.371094 C 35.464844 44.503906 35.347656 44.597656 35.21875 44.582031 C 34.703125 44.433594 34.367188 43.679688 34.742188 43.148438 C 34.828125 43.050781 34.976562 43.039062 35.078125 43.121094 C 35.179688 43.207031 35.191406 43.355469 35.105469 43.457031 Z M 35.105469 43.453125 " fill-opacity="1" fill-rule="evenodd"/><path fill="#ce303f" d="M 36.847656 42.25 C 36.707031 42.039062 36.351562 42.085938 36.152344 42.199219 C 36.082031 42.289062 35.957031 42.320312 35.851562 42.265625 C 35.738281 42.207031 35.691406 42.0625 35.75 41.945312 C 36.078125 41.527344 36.90625 41.488281 37.269531 42.027344 C 37.328125 42.144531 37.285156 42.285156 37.171875 42.347656 C 37.054688 42.410156 36.910156 42.367188 36.847656 42.25 Z M 36.847656 42.25 " fill-opacity="1" fill-rule="evenodd"/><path fill="#ce303f" d="M 36.804688 44.640625 C 37.050781 44.710938 37.292969 44.445312 37.371094 44.230469 C 37.363281 44.121094 37.441406 44.015625 37.554688 43.988281 C 37.683594 43.960938 37.808594 44.039062 37.839844 44.167969 C 37.863281 44.695312 37.257812 45.257812 36.628906 45.078125 C 36.507812 45.03125 36.449219 44.894531 36.496094 44.773438 C 36.542969 44.652344 36.679688 44.589844 36.804688 44.640625 Z M 36.804688 44.640625 " fill-opacity="1" fill-rule="evenodd"/><path fill="#ce303f" d="M 35.621094 35.761719 C 35.808594 35.933594 36.144531 35.804688 36.308594 35.644531 C 36.355469 35.542969 36.46875 35.484375 36.582031 35.511719 C 36.710938 35.539062 36.789062 35.667969 36.757812 35.792969 C 36.542969 36.28125 35.746094 36.511719 35.265625 36.074219 C 35.179688 35.980469 35.1875 35.832031 35.285156 35.742188 C 35.378906 35.65625 35.53125 35.664062 35.621094 35.757812 Z M 35.621094 35.761719 " fill-opacity="1" fill-rule="evenodd"/><path fill="#ce303f" d="M 36.242188 36.558594 C 36.304688 36.550781 36.367188 36.539062 36.417969 36.503906 C 36.5 36.410156 36.640625 36.390625 36.742188 36.464844 C 36.847656 36.542969 36.871094 36.691406 36.792969 36.796875 C 36.621094 36.976562 36.480469 37.007812 36.230469 37.03125 C 36.101562 37.027344 35.996094 36.917969 36 36.789062 C 36.003906 36.660156 36.113281 36.554688 36.242188 36.558594 Z M 36.242188 36.558594 " fill-opacity="1" fill-rule="evenodd"/><path fill="#ce303f" d="M 35.046875 35.28125 C 35.011719 35.0625 35.039062 34.988281 35.15625 34.792969 C 35.226562 34.683594 35.375 34.652344 35.484375 34.722656 C 35.59375 34.792969 35.625 34.9375 35.554688 35.046875 C 35.515625 35.117188 35.5 35.117188 35.511719 35.183594 C 35.539062 35.3125 35.453125 35.4375 35.328125 35.460938 C 35.199219 35.488281 35.074219 35.40625 35.046875 35.28125 Z M 35.046875 35.28125 " fill-opacity="1" fill-rule="evenodd"/><path fill="#ce303f" d="M 35.953125 34.449219 C 36.332031 34.511719 36.445312 34.535156 36.609375 34.886719 C 36.65625 35.007812 36.59375 35.144531 36.472656 35.191406 C 36.351562 35.234375 36.214844 35.175781 36.167969 35.054688 C 36.101562 34.910156 36.074219 34.949219 35.855469 34.910156 C 35.730469 34.882812 35.648438 34.757812 35.671875 34.632812 C 35.699219 34.503906 35.828125 34.421875 35.953125 34.449219 Z M 35.953125 34.449219 " fill-opacity="1" fill-rule="evenodd"/><path fill="#ce303f" d="M 36.105469 35.554688 C 36.011719 35.621094 36.015625 35.617188 35.894531 35.640625 C 35.761719 35.644531 35.65625 35.539062 35.652344 35.410156 C 35.652344 35.304688 35.722656 35.210938 35.820312 35.179688 C 35.921875 35.105469 36.066406 35.125 36.144531 35.226562 C 36.226562 35.328125 36.207031 35.476562 36.105469 35.558594 Z M 36.105469 35.554688 " fill-opacity="1" fill-rule="evenodd"/><path fill="#ce303f" d="M 35.8125 34.1875 C 35.601562 34.039062 35.285156 34.210938 35.140625 34.386719 C 35.109375 34.496094 35.003906 34.570312 34.886719 34.558594 C 34.757812 34.542969 34.664062 34.425781 34.679688 34.296875 C 34.828125 33.789062 35.585938 33.457031 36.121094 33.828125 C 36.222656 33.914062 36.230469 34.0625 36.148438 34.164062 C 36.0625 34.261719 35.910156 34.273438 35.8125 34.1875 Z M 35.8125 34.1875 " fill-opacity="1" fill-rule="evenodd"/><path fill="#ce303f" d="M 37.015625 35.925781 C 37.234375 35.785156 37.1875 35.429688 37.074219 35.230469 C 36.984375 35.164062 36.953125 35.039062 37.007812 34.933594 C 37.070312 34.820312 37.210938 34.773438 37.328125 34.835938 C 37.75 35.160156 37.785156 35.984375 37.242188 36.339844 C 37.125 36.402344 36.980469 36.359375 36.917969 36.242188 C 36.855469 36.128906 36.902344 35.984375 37.015625 35.925781 Z M 37.015625 35.925781 " fill-opacity="1" fill-rule="evenodd"/><path fill="#ce303f" d="M 34.613281 35.871094 C 34.542969 36.117188 34.808594 36.359375 35.023438 36.4375 C 35.136719 36.429688 35.242188 36.507812 35.265625 36.621094 C 35.296875 36.746094 35.214844 36.875 35.089844 36.902344 C 34.554688 36.925781 33.992188 36.320312 34.171875 35.699219 C 34.222656 35.578125 34.359375 35.519531 34.480469 35.566406 C 34.605469 35.613281 34.664062 35.75 34.613281 35.871094 Z M 34.613281 35.871094 " fill-opacity="1" fill-rule="evenodd"/><path fill="#ce303f" d="M 31.382812 30.988281 C 31.570312 31.164062 31.90625 31.035156 32.070312 30.875 C 32.117188 30.773438 32.230469 30.710938 32.34375 30.738281 C 32.472656 30.769531 32.550781 30.898438 32.519531 31.023438 C 32.304688 31.511719 31.511719 31.742188 31.027344 31.304688 C 30.941406 31.210938 30.949219 31.058594 31.046875 30.972656 C 31.144531 30.886719 31.292969 30.890625 31.382812 30.988281 Z M 31.382812 30.988281 " fill-opacity="1" fill-rule="evenodd"/><path fill="#ce303f" d="M 32.007812 31.789062 C 32.066406 31.78125 32.128906 31.769531 32.179688 31.734375 C 32.261719 31.640625 32.402344 31.621094 32.503906 31.695312 C 32.609375 31.773438 32.632812 31.917969 32.554688 32.023438 C 32.382812 32.203125 32.242188 32.238281 31.996094 32.261719 C 31.863281 32.257812 31.761719 32.148438 31.761719 32.019531 C 31.765625 31.890625 31.875 31.785156 32.007812 31.789062 Z M 32.007812 31.789062 " fill-opacity="1" fill-rule="evenodd"/><path fill="#ce303f" d="M 30.808594 30.507812 C 30.773438 30.289062 30.800781 30.21875 30.917969 30.023438 C 30.988281 29.914062 31.132812 29.882812 31.246094 29.953125 C 31.355469 30.023438 31.386719 30.167969 31.316406 30.277344 C 31.277344 30.347656 31.261719 30.347656 31.273438 30.414062 C 31.296875 30.542969 31.214844 30.667969 31.085938 30.691406 C 30.957031 30.71875 30.835938 30.636719 30.808594 30.507812 Z M 30.808594 30.507812 " fill-opacity="1" fill-rule="evenodd"/><path fill="#ce303f" d="M 31.71875 29.679688 C 32.09375 29.742188 32.207031 29.765625 32.375 30.117188 C 32.417969 30.238281 32.359375 30.375 32.234375 30.417969 C 32.113281 30.464844 31.976562 30.40625 31.929688 30.285156 C 31.863281 30.136719 31.835938 30.179688 31.617188 30.140625 C 31.492188 30.113281 31.410156 29.988281 31.4375 29.863281 C 31.464844 29.734375 31.589844 29.652344 31.71875 29.679688 Z M 31.71875 29.679688 " fill-opacity="1" fill-rule="evenodd"/><path fill="#ce303f" d="M 31.867188 30.785156 C 31.773438 30.851562 31.777344 30.847656 31.65625 30.871094 C 31.527344 30.875 31.417969 30.769531 31.414062 30.640625 C 31.414062 30.535156 31.484375 30.441406 31.582031 30.410156 C 31.683594 30.335938 31.828125 30.355469 31.90625 30.457031 C 31.988281 30.558594 31.972656 30.707031 31.867188 30.785156 Z M 31.867188 30.785156 " fill-opacity="1" fill-rule="evenodd"/><path fill="#ce303f" d="M 31.574219 29.417969 C 31.363281 29.269531 31.046875 29.441406 30.90625 29.617188 C 30.875 29.726562 30.765625 29.796875 30.648438 29.785156 C 30.519531 29.773438 30.425781 29.65625 30.441406 29.523438 C 30.589844 29.015625 31.351562 28.6875 31.882812 29.058594 C 31.984375 29.144531 31.996094 29.292969 31.910156 29.390625 C 31.824219 29.488281 31.675781 29.5 31.574219 29.417969 Z M 31.574219 29.417969 " fill-opacity="1" fill-rule="evenodd"/><path fill="#ce303f" d="M 32.78125 31.15625 C 32.996094 31.015625 32.949219 30.660156 32.835938 30.460938 C 32.746094 30.394531 32.714844 30.269531 32.769531 30.164062 C 32.832031 30.050781 32.972656 30.003906 33.089844 30.066406 C 33.511719 30.390625 33.546875 31.210938 33.003906 31.570312 C 32.886719 31.632812 32.742188 31.589844 32.679688 31.472656 C 32.621094 31.359375 32.664062 31.214844 32.78125 31.152344 Z M 32.78125 31.15625 " fill-opacity="1" fill-rule="evenodd"/><path fill="#ce303f" d="M 30.378906 31.101562 C 30.304688 31.347656 30.570312 31.589844 30.785156 31.667969 C 30.898438 31.660156 31.003906 31.738281 31.03125 31.851562 C 31.058594 31.976562 30.976562 32.105469 30.851562 32.132812 C 30.316406 32.15625 29.753906 31.550781 29.9375 30.925781 C 29.984375 30.804688 30.121094 30.746094 30.242188 30.796875 C 30.367188 30.84375 30.425781 30.980469 30.378906 31.101562 Z M 30.378906 31.101562 " fill-opacity="1" fill-rule="evenodd"/><path fill="#ce303f" d="M 24.082031 33.675781 C 24.304688 33.804688 24.605469 33.605469 24.734375 33.417969 C 24.753906 33.308594 24.855469 33.226562 24.972656 33.226562 C 25.101562 33.230469 25.207031 33.339844 25.203125 33.46875 C 25.097656 33.988281 24.367188 34.382812 23.804688 34.058594 C 23.699219 33.980469 23.675781 33.832031 23.75 33.730469 C 23.828125 33.621094 23.976562 33.597656 24.082031 33.675781 Z M 24.082031 33.675781 " fill-opacity="1" fill-rule="evenodd"/><path fill="#ce303f" d="M 24.863281 34.324219 C 24.917969 34.304688 24.976562 34.277344 25.023438 34.234375 C 25.078125 34.121094 25.214844 34.074219 25.328125 34.125 C 25.449219 34.179688 25.503906 34.320312 25.449219 34.4375 C 25.320312 34.652344 25.191406 34.710938 24.949219 34.785156 C 24.820312 34.8125 24.699219 34.726562 24.671875 34.597656 C 24.648438 34.472656 24.734375 34.347656 24.863281 34.324219 Z M 24.863281 34.324219 " fill-opacity="1" fill-rule="evenodd"/><path fill="#ce303f" d="M 23.417969 33.324219 C 23.335938 33.117188 23.351562 33.039062 23.421875 32.828125 C 23.46875 32.703125 23.605469 32.640625 23.730469 32.6875 C 23.851562 32.734375 23.914062 32.867188 23.867188 32.992188 C 23.84375 33.066406 23.828125 33.070312 23.855469 33.132812 C 23.90625 33.253906 23.851562 33.390625 23.734375 33.445312 C 23.613281 33.496094 23.472656 33.445312 23.417969 33.324219 Z M 23.417969 33.324219 " fill-opacity="1" fill-rule="evenodd"/><path fill="#ce303f" d="M 24.132812 32.324219 C 24.511719 32.304688 24.628906 32.304688 24.863281 32.613281 C 24.9375 32.71875 24.90625 32.867188 24.796875 32.9375 C 24.683594 33.007812 24.539062 32.976562 24.46875 32.867188 C 24.371094 32.742188 24.355469 32.785156 24.132812 32.796875 C 24.003906 32.796875 23.894531 32.691406 23.894531 32.558594 C 23.894531 32.429688 24 32.324219 24.132812 32.324219 Z M 24.132812 32.324219 " fill-opacity="1" fill-rule="evenodd"/><path fill="#ce303f" d="M 24.515625 33.375 C 24.4375 33.457031 24.4375 33.453125 24.324219 33.5 C 24.199219 33.53125 24.070312 33.453125 24.039062 33.324219 C 24.015625 33.222656 24.066406 33.117188 24.152344 33.066406 C 24.238281 32.972656 24.382812 32.960938 24.484375 33.042969 C 24.585938 33.125 24.597656 33.273438 24.515625 33.375 Z M 24.515625 33.375 " fill-opacity="1" fill-rule="evenodd"/><path fill="#ce303f" d="M 23.9375 32.097656 C 23.699219 31.996094 23.425781 32.230469 23.324219 32.433594 C 23.316406 32.546875 23.226562 32.640625 23.109375 32.652344 C 22.980469 32.664062 22.863281 32.570312 22.851562 32.441406 C 22.890625 31.910156 23.5625 31.429688 24.164062 31.683594 C 24.277344 31.742188 24.320312 31.886719 24.257812 32 C 24.195312 32.117188 24.050781 32.160156 23.9375 32.097656 Z M 23.9375 32.097656 " fill-opacity="1" fill-rule="evenodd"/><path fill="#ce303f" d="M 25.484375 33.542969 C 25.664062 33.359375 25.542969 33.023438 25.390625 32.851562 C 25.289062 32.804688 25.234375 32.6875 25.265625 32.578125 C 25.300781 32.453125 25.429688 32.378906 25.554688 32.414062 C 26.039062 32.640625 26.246094 33.4375 25.789062 33.902344 C 25.691406 33.988281 25.539062 33.976562 25.457031 33.875 C 25.371094 33.777344 25.382812 33.628906 25.484375 33.542969 Z M 25.484375 33.542969 " fill-opacity="1" fill-rule="evenodd"/><path fill="#ce303f" d="M 23.125 33.996094 C 23.105469 34.25 23.417969 34.429688 23.644531 34.460938 C 23.753906 34.433594 23.871094 34.484375 23.921875 34.589844 C 23.976562 34.707031 23.925781 34.847656 23.804688 34.902344 C 23.289062 35.039062 22.609375 34.5625 22.65625 33.917969 C 22.675781 33.789062 22.800781 33.699219 22.929688 33.722656 C 23.058594 33.742188 23.144531 33.863281 23.125 33.992188 Z M 23.125 33.996094 " fill-opacity="1" fill-rule="evenodd"/><path fill="#ce303f" d="M 24.054688 26.214844 C 24.601562 26.164062 25.125 25.816406 25.132812 25.226562 C 25.132812 25.160156 25.160156 25.101562 25.203125 25.058594 L 25.574219 25.105469 C 25.59375 25.140625 25.605469 25.179688 25.605469 25.222656 C 25.589844 26.09375 24.898438 26.613281 24.058594 26.683594 C 23.925781 26.6875 23.820312 26.582031 23.820312 26.453125 C 23.816406 26.324219 23.921875 26.214844 24.054688 26.214844 Z M 24.054688 26.214844 " fill-opacity="1" fill-rule="evenodd"/><g clip-path="url(#cb8eb4d253)"><path fill="#ce303f" d="M 24.390625 25.339844 C 24.449219 25.210938 24.402344 25.066406 24.316406 24.949219 C 24.496094 24.972656 24.675781 24.992188 24.859375 25.015625 C 24.898438 25.195312 24.886719 25.386719 24.804688 25.570312 C 24.742188 25.683594 24.597656 25.722656 24.484375 25.660156 C 24.367188 25.597656 24.328125 25.453125 24.390625 25.339844 Z M 24.390625 25.339844 " fill-opacity="1" fill-rule="evenodd"/></g><g clip-path="url(#d002758418)"><path fill="#ce303f" d="M 22.945312 24.773438 C 22.929688 24.816406 22.910156 24.859375 22.894531 24.90625 C 22.855469 25.03125 22.71875 25.097656 22.59375 25.054688 C 22.472656 25.015625 22.402344 24.882812 22.445312 24.757812 L 22.460938 24.710938 Z M 22.945312 24.773438 " fill-opacity="1" fill-rule="evenodd"/></g><path fill="#ce303f" d="M 24.117188 26.035156 C 23.921875 26.136719 23.84375 26.132812 23.621094 26.085938 C 23.492188 26.054688 23.414062 25.925781 23.445312 25.800781 C 23.476562 25.675781 23.605469 25.597656 23.734375 25.628906 C 23.8125 25.644531 23.816406 25.660156 23.878906 25.625 C 23.992188 25.5625 24.136719 25.597656 24.203125 25.710938 C 24.269531 25.824219 24.230469 25.96875 24.117188 26.035156 Z M 24.117188 26.035156 " fill-opacity="1" fill-rule="evenodd"/><g clip-path="url(#fa68d7fa48)"><path fill="#ce303f" d="M 23.035156 25.445312 C 22.984375 25.125 22.964844 24.996094 23.132812 24.796875 L 23.628906 24.863281 C 23.628906 24.933594 23.601562 25.003906 23.542969 25.050781 C 23.425781 25.164062 23.472656 25.171875 23.507812 25.390625 C 23.523438 25.519531 23.429688 25.636719 23.300781 25.652344 C 23.167969 25.667969 23.050781 25.574219 23.035156 25.445312 Z M 23.035156 25.445312 " fill-opacity="1" fill-rule="evenodd"/></g><g clip-path="url(#3c74749fb9)"><path fill="#ce303f" d="M 24.042969 24.945312 C 24.136719 25.011719 24.128906 25.011719 24.191406 25.117188 C 24.234375 25.242188 24.171875 25.375 24.046875 25.421875 C 23.945312 25.457031 23.835938 25.417969 23.777344 25.339844 C 23.671875 25.265625 23.644531 25.121094 23.714844 25.015625 C 23.785156 24.90625 23.933594 24.875 24.042969 24.945312 Z M 24.042969 24.945312 " fill-opacity="1" fill-rule="evenodd"/></g><path fill="#ce303f" d="M 22.832031 25.660156 C 22.757812 25.910156 23.023438 26.152344 23.238281 26.230469 C 23.351562 26.222656 23.457031 26.300781 23.480469 26.414062 C 23.507812 26.542969 23.425781 26.667969 23.296875 26.695312 C 22.765625 26.714844 22.207031 26.109375 22.390625 25.484375 C 22.441406 25.363281 22.578125 25.308594 22.699219 25.355469 C 22.820312 25.402344 22.878906 25.539062 22.832031 25.660156 Z M 22.832031 25.660156 " fill-opacity="1" fill-rule="evenodd"/><path fill="#ce303f" d="M 18.429688 39.277344 C 18.976562 39.226562 19.5 38.878906 19.511719 38.289062 C 19.507812 38.160156 19.613281 38.050781 19.746094 38.050781 C 19.875 38.050781 19.984375 38.15625 19.984375 38.285156 C 19.964844 39.15625 19.277344 39.671875 18.433594 39.746094 C 18.304688 39.75 18.195312 39.644531 18.195312 39.515625 C 18.195312 39.382812 18.300781 39.277344 18.429688 39.277344 Z M 18.429688 39.277344 " fill-opacity="1" fill-rule="evenodd"/><path fill="#ce303f" d="M 18.769531 38.402344 C 18.875 38.167969 18.640625 37.894531 18.4375 37.789062 C 18.324219 37.78125 18.230469 37.691406 18.222656 37.574219 C 18.210938 37.445312 18.308594 37.332031 18.4375 37.320312 C 18.96875 37.363281 19.445312 38.039062 19.183594 38.632812 C 19.121094 38.746094 18.976562 38.785156 18.859375 38.722656 C 18.746094 38.660156 18.707031 38.515625 18.769531 38.402344 Z M 18.769531 38.402344 " fill-opacity="1" fill-rule="evenodd"/><path fill="#ce303f" d="M 19.328125 37.558594 C 19.300781 37.5 19.269531 37.449219 19.222656 37.410156 C 19.105469 37.367188 19.039062 37.238281 19.078125 37.117188 C 19.121094 36.992188 19.253906 36.921875 19.378906 36.964844 C 19.605469 37.070312 19.679688 37.1875 19.78125 37.414062 C 19.820312 37.539062 19.753906 37.671875 19.625 37.710938 C 19.5 37.75 19.367188 37.679688 19.328125 37.554688 Z M 19.328125 37.558594 " fill-opacity="1" fill-rule="evenodd"/><g clip-path="url(#26381f3154)"><path fill="#ce303f" d="M 18.628906 37.136719 C 18.425781 37.09375 18.246094 37.085938 18.097656 37.109375 C 18.082031 37.035156 18.070312 36.976562 18.054688 36.925781 C 18.03125 36.863281 18.003906 36.769531 17.972656 36.65625 C 18.203125 36.617188 18.464844 36.625 18.765625 36.683594 C 18.890625 36.722656 18.960938 36.851562 18.925781 36.976562 C 18.886719 37.101562 18.757812 37.171875 18.628906 37.136719 Z M 18.628906 37.136719 " fill-opacity="1" fill-rule="evenodd"/></g><path fill="#ce303f" d="M 18.496094 39.09375 C 18.367188 39.164062 18.289062 39.183594 18.1875 39.179688 C 18.1875 39.023438 18.1875 38.867188 18.1875 38.707031 C 18.207031 38.710938 18.222656 38.707031 18.253906 38.6875 C 18.367188 38.621094 18.511719 38.660156 18.578125 38.773438 C 18.644531 38.886719 18.609375 39.03125 18.496094 39.097656 Z M 18.496094 39.09375 " fill-opacity="1" fill-rule="evenodd"/><path fill="#ce303f" d="M 18.417969 38.007812 C 18.511719 38.074219 18.507812 38.074219 18.570312 38.179688 C 18.613281 38.300781 18.550781 38.4375 18.425781 38.480469 C 18.339844 38.511719 18.246094 38.488281 18.183594 38.429688 C 18.179688 38.285156 18.175781 38.140625 18.171875 38 C 18.246094 37.957031 18.339844 37.957031 18.417969 38.007812 Z M 18.417969 38.007812 " fill-opacity="1" fill-rule="evenodd"/><path fill="#ce303f" d="M 20.949219 45.707031 C 21.089844 45.515625 20.964844 45.207031 20.8125 45.050781 C 20.707031 45.003906 20.648438 44.890625 20.671875 44.777344 C 20.703125 44.648438 20.832031 44.574219 20.960938 44.601562 C 21.339844 44.765625 21.566406 45.277344 21.445312 45.722656 C 21.273438 45.71875 21.109375 45.714844 20.949219 45.707031 Z M 20.949219 45.707031 " fill-opacity="1" fill-rule="evenodd"/><path fill="#ce303f" d="M 21.730469 45.109375 C 21.722656 45.050781 21.707031 44.988281 21.675781 44.9375 C 21.578125 44.859375 21.558594 44.71875 21.632812 44.617188 C 21.710938 44.511719 21.859375 44.488281 21.964844 44.566406 C 22.148438 44.738281 22.179688 44.875 22.203125 45.121094 C 22.203125 45.25 22.09375 45.355469 21.960938 45.351562 C 21.832031 45.347656 21.726562 45.242188 21.730469 45.113281 Z M 21.730469 45.109375 " fill-opacity="1" fill-rule="evenodd"/><path fill="#ce303f" d="M 19.609375 45.40625 C 19.671875 45.03125 19.695312 44.917969 20.046875 44.753906 C 20.167969 44.707031 20.304688 44.765625 20.351562 44.886719 C 20.398438 45.007812 20.335938 45.144531 20.214844 45.191406 C 20.070312 45.261719 20.109375 45.285156 20.074219 45.503906 C 20.054688 45.589844 19.988281 45.65625 19.910156 45.679688 L 19.765625 45.675781 C 19.652344 45.640625 19.585938 45.523438 19.609375 45.40625 Z M 19.609375 45.40625 " fill-opacity="1" fill-rule="evenodd"/><path fill="#ce303f" d="M 20.722656 45.25 C 20.789062 45.34375 20.785156 45.34375 20.808594 45.460938 C 20.8125 45.578125 20.726562 45.679688 20.613281 45.699219 L 20.515625 45.695312 C 20.433594 45.675781 20.371094 45.617188 20.34375 45.539062 C 20.269531 45.4375 20.289062 45.292969 20.386719 45.214844 C 20.492188 45.132812 20.640625 45.148438 20.722656 45.25 Z M 20.722656 45.25 " fill-opacity="1" fill-rule="evenodd"/><path fill="#ce303f" d="M 19.34375 45.546875 C 19.320312 45.585938 19.304688 45.625 19.292969 45.667969 C 19.125 45.664062 18.96875 45.660156 18.828125 45.65625 C 18.84375 45.511719 18.894531 45.371094 18.984375 45.242188 C 19.070312 45.144531 19.21875 45.132812 19.320312 45.214844 C 19.417969 45.300781 19.429688 45.449219 19.34375 45.546875 Z M 19.34375 45.546875 " fill-opacity="1" fill-rule="evenodd"/><path fill="#ce303f" d="M 21.089844 44.34375 C 20.949219 44.132812 20.589844 44.175781 20.394531 44.292969 C 20.324219 44.382812 20.199219 44.414062 20.09375 44.359375 C 19.976562 44.296875 19.933594 44.15625 19.992188 44.039062 C 20.320312 43.621094 21.148438 43.582031 21.511719 44.121094 C 21.570312 44.238281 21.527344 44.378906 21.414062 44.441406 C 21.296875 44.503906 21.152344 44.460938 21.089844 44.34375 Z M 21.089844 44.34375 " fill-opacity="1" fill-rule="evenodd"/><path fill="#ce303f" d="M 50.441406 48.882812 C 50.96875 48.820312 51.464844 48.476562 51.472656 47.902344 C 51.472656 47.773438 51.578125 47.664062 51.707031 47.664062 C 51.839844 47.664062 51.945312 47.765625 51.949219 47.898438 C 51.9375 48.371094 51.726562 48.742188 51.402344 48.992188 C 51.074219 48.957031 50.753906 48.921875 50.441406 48.882812 Z M 50.441406 48.882812 " fill-opacity="1" fill-rule="evenodd"/><path fill="#ce303f" d="M 50.730469 48.015625 C 50.835938 47.777344 50.605469 47.503906 50.402344 47.398438 C 50.289062 47.390625 50.195312 47.300781 50.183594 47.1875 C 50.171875 47.054688 50.269531 46.941406 50.398438 46.929688 C 50.933594 46.976562 51.410156 47.648438 51.144531 48.242188 C 51.082031 48.355469 50.9375 48.398438 50.824219 48.335938 C 50.707031 48.269531 50.667969 48.125 50.730469 48.011719 Z M 50.730469 48.015625 " fill-opacity="1" fill-rule="evenodd"/><path fill="#ce303f" d="M 51.292969 47.167969 C 51.265625 47.113281 51.230469 47.0625 51.183594 47.023438 C 51.066406 46.976562 51.003906 46.851562 51.042969 46.730469 C 51.082031 46.605469 51.214844 46.539062 51.339844 46.578125 C 51.566406 46.683594 51.640625 46.800781 51.746094 47.027344 C 51.785156 47.152344 51.714844 47.285156 51.589844 47.324219 C 51.464844 47.363281 51.332031 47.292969 51.292969 47.167969 Z M 51.292969 47.167969 " fill-opacity="1" fill-rule="evenodd"/><path fill="#ce303f" d="M 50.59375 46.746094 C 49.816406 46.597656 49.46875 46.902344 49.234375 47.582031 C 49.191406 47.707031 49.058594 47.773438 48.933594 47.730469 C 48.808594 47.691406 48.742188 47.554688 48.785156 47.433594 C 49.117188 46.472656 49.699219 46.09375 50.730469 46.296875 C 50.855469 46.332031 50.925781 46.464844 50.890625 46.589844 C 50.851562 46.714844 50.71875 46.785156 50.59375 46.746094 Z M 50.59375 46.746094 " fill-opacity="1" fill-rule="evenodd"/><path fill="#ce303f" d="M 50.457031 48.707031 C 50.257812 48.8125 50.179688 48.808594 49.957031 48.761719 C 49.832031 48.730469 49.753906 48.601562 49.785156 48.476562 C 49.816406 48.347656 49.945312 48.273438 50.070312 48.304688 C 50.152344 48.320312 50.15625 48.335938 50.214844 48.300781 C 50.332031 48.234375 50.476562 48.273438 50.542969 48.386719 C 50.609375 48.5 50.570312 48.644531 50.457031 48.710938 Z M 50.457031 48.707031 " fill-opacity="1" fill-rule="evenodd"/><path fill="#ce303f" d="M 49.375 48.117188 C 49.3125 47.746094 49.300781 47.628906 49.578125 47.359375 C 49.679688 47.277344 49.828125 47.292969 49.914062 47.390625 C 49.996094 47.492188 49.980469 47.640625 49.882812 47.722656 C 49.765625 47.835938 49.808594 47.84375 49.847656 48.0625 C 49.859375 48.191406 49.769531 48.308594 49.636719 48.324219 C 49.507812 48.339844 49.390625 48.246094 49.375 48.117188 Z M 49.375 48.117188 " fill-opacity="1" fill-rule="evenodd"/><path fill="#ce303f" d="M 50.378906 47.621094 C 50.472656 47.6875 50.46875 47.6875 50.53125 47.792969 C 50.574219 47.914062 50.511719 48.050781 50.386719 48.09375 C 50.285156 48.128906 50.175781 48.09375 50.117188 48.011719 C 50.011719 47.9375 49.984375 47.796875 50.050781 47.691406 C 50.125 47.582031 50.269531 47.550781 50.378906 47.621094 Z M 50.378906 47.621094 " fill-opacity="1" fill-rule="evenodd"/><path fill="#ce303f" d="M 49.171875 48.335938 C 49.125 48.484375 49.207031 48.632812 49.320312 48.742188 C 49.121094 48.71875 48.925781 48.691406 48.730469 48.664062 C 48.683594 48.507812 48.679688 48.332031 48.730469 48.160156 C 48.777344 48.039062 48.917969 47.980469 49.039062 48.03125 C 49.160156 48.078125 49.21875 48.214844 49.171875 48.335938 Z M 49.171875 48.335938 " fill-opacity="1" fill-rule="evenodd"/><path fill="#ce303f" d="M 84.53125 47.566406 C 84.753906 47.695312 85.054688 47.496094 85.183594 47.308594 C 85.203125 47.199219 85.304688 47.117188 85.421875 47.121094 C 85.550781 47.121094 85.65625 47.230469 85.652344 47.359375 C 85.546875 47.882812 84.816406 48.277344 84.253906 47.949219 C 84.148438 47.871094 84.125 47.726562 84.199219 47.621094 C 84.277344 47.515625 84.425781 47.488281 84.53125 47.566406 Z M 84.53125 47.566406 " fill-opacity="1" fill-rule="evenodd"/><path fill="#ce303f" d="M 85.3125 48.214844 C 85.367188 48.195312 85.429688 48.167969 85.472656 48.125 C 85.527344 48.015625 85.664062 47.964844 85.777344 48.019531 C 85.898438 48.070312 85.953125 48.210938 85.898438 48.328125 C 85.765625 48.542969 85.640625 48.601562 85.398438 48.679688 C 85.269531 48.703125 85.148438 48.617188 85.121094 48.492188 C 85.097656 48.363281 85.183594 48.238281 85.3125 48.214844 Z M 85.3125 48.214844 " fill-opacity="1" fill-rule="evenodd"/><path fill="#ce303f" d="M 83.867188 47.214844 C 83.785156 47.007812 83.800781 46.933594 83.871094 46.71875 C 83.917969 46.59375 84.054688 46.53125 84.179688 46.578125 C 84.300781 46.625 84.363281 46.757812 84.316406 46.882812 C 84.292969 46.957031 84.277344 46.960938 84.304688 47.023438 C 84.355469 47.144531 84.300781 47.285156 84.183594 47.335938 C 84.0625 47.390625 83.921875 47.335938 83.867188 47.214844 Z M 83.867188 47.214844 " fill-opacity="1" fill-rule="evenodd"/><path fill="#ce303f" d="M 84.582031 46.214844 C 84.960938 46.195312 85.078125 46.195312 85.3125 46.503906 C 85.386719 46.613281 85.355469 46.757812 85.242188 46.828125 C 85.132812 46.898438 84.988281 46.867188 84.914062 46.757812 C 84.820312 46.632812 84.804688 46.675781 84.582031 46.6875 C 84.453125 46.6875 84.34375 46.582031 84.34375 46.453125 C 84.34375 46.320312 84.449219 46.214844 84.582031 46.214844 Z M 84.582031 46.214844 " fill-opacity="1" fill-rule="evenodd"/><path fill="#ce303f" d="M 84.964844 47.265625 C 84.886719 47.351562 84.886719 47.34375 84.773438 47.390625 C 84.648438 47.421875 84.519531 47.34375 84.488281 47.21875 C 84.464844 47.113281 84.515625 47.007812 84.601562 46.957031 C 84.6875 46.863281 84.832031 46.851562 84.933594 46.933594 C 85.035156 47.015625 85.046875 47.164062 84.964844 47.265625 Z M 84.964844 47.265625 " fill-opacity="1" fill-rule="evenodd"/><path fill="#ce303f" d="M 84.386719 45.988281 C 84.148438 45.886719 83.875 46.121094 83.773438 46.324219 C 83.765625 46.4375 83.675781 46.53125 83.558594 46.542969 C 83.429688 46.554688 83.3125 46.460938 83.300781 46.332031 C 83.339844 45.804688 84.011719 45.320312 84.613281 45.574219 C 84.726562 45.632812 84.769531 45.777344 84.707031 45.890625 C 84.644531 46.007812 84.5 46.050781 84.386719 45.988281 Z M 84.386719 45.988281 " fill-opacity="1" fill-rule="evenodd"/><path fill="#ce303f" d="M 85.933594 47.433594 C 86.113281 47.25 85.992188 46.914062 85.839844 46.746094 C 85.738281 46.695312 85.683594 46.582031 85.714844 46.46875 C 85.75 46.34375 85.878906 46.269531 86.003906 46.304688 C 86.488281 46.53125 86.695312 47.328125 86.238281 47.792969 C 86.140625 47.878906 85.988281 47.867188 85.90625 47.765625 C 85.820312 47.667969 85.832031 47.519531 85.933594 47.433594 Z M 85.933594 47.433594 " fill-opacity="1" fill-rule="evenodd"/><path fill="#ce303f" d="M 83.574219 47.886719 C 83.554688 48.144531 83.867188 48.320312 84.09375 48.351562 C 84.203125 48.324219 84.320312 48.375 84.371094 48.480469 C 84.425781 48.601562 84.375 48.738281 84.253906 48.792969 C 83.738281 48.929688 83.058594 48.457031 83.105469 47.808594 C 83.125 47.679688 83.25 47.59375 83.378906 47.613281 C 83.507812 47.636719 83.59375 47.757812 83.574219 47.886719 Z M 83.574219 47.886719 " fill-opacity="1" fill-rule="evenodd"/><path fill="#ce303f" d="M 40.601562 29.324219 C 40.792969 28.941406 40.984375 28.75 41.371094 28.75 C 41.792969 28.75 42.140625 29.09375 42.140625 29.515625 C 42.140625 30.277344 41.371094 31.042969 40.601562 31.804688 C 39.832031 31.042969 39.066406 30.277344 39.066406 29.515625 C 39.066406 29.09375 39.410156 28.75 39.832031 28.75 C 40.21875 28.75 40.410156 28.941406 40.601562 29.324219 Z M 40.601562 29.324219 " fill-opacity="1" fill-rule="nonzero"/><path fill="#ce303f" d="M 26.816406 38.980469 C 26.871094 38.28125 27.046875 37.871094 27.632812 37.632812 C 28.277344 37.375 29.015625 37.683594 29.277344 38.328125 C 29.753906 39.488281 29.058594 41.128906 28.363281 42.761719 C 26.714844 42.070312 25.066406 41.378906 24.59375 40.214844 C 24.328125 39.574219 24.640625 38.839844 25.289062 38.582031 C 25.875 38.34375 26.285156 38.515625 26.816406 38.980469 Z M 26.816406 38.980469 " fill-opacity="1" fill-rule="nonzero"/><path fill="#ce303f" d="M 20.957031 29.039062 C 21.304688 28.789062 21.5625 28.707031 21.902344 28.882812 C 22.28125 29.078125 22.425781 29.539062 22.230469 29.914062 C 21.875 30.589844 20.839844 30.917969 19.804688 31.242188 C 19.476562 30.210938 19.148438 29.179688 19.503906 28.503906 C 19.699219 28.128906 20.164062 27.984375 20.539062 28.179688 C 20.878906 28.355469 20.960938 28.613281 20.953125 29.039062 Z M 20.957031 29.039062 " fill-opacity="1" fill-rule="nonzero"/><path fill="#ce303f" d="M 51.75 38.835938 C 52.097656 38.585938 52.359375 38.503906 52.699219 38.679688 C 53.074219 38.875 53.222656 39.335938 53.027344 39.710938 C 52.671875 40.390625 51.632812 40.714844 50.597656 41.039062 C 50.269531 40.007812 49.945312 38.980469 50.296875 38.300781 C 50.492188 37.925781 50.957031 37.78125 51.335938 37.976562 C 51.675781 38.152344 51.757812 38.410156 51.75 38.835938 Z M 51.75 38.835938 " fill-opacity="1" fill-rule="nonzero"/><path fill="#ce303f" d="M 72.121094 43.828125 C 72.179688 43.125 72.351562 42.71875 72.9375 42.480469 C 73.582031 42.21875 74.320312 42.53125 74.582031 43.171875 C 75.058594 44.335938 74.363281 45.972656 73.667969 47.609375 C 72.019531 46.917969 70.375 46.226562 69.898438 45.0625 C 69.636719 44.421875 69.949219 43.6875 70.59375 43.425781 C 71.179688 43.191406 71.589844 43.363281 72.121094 43.828125 Z M 72.121094 43.828125 " fill-opacity="1" fill-rule="nonzero"/><path fill="#ce303f" d="M 84.640625 29.640625 C 84.832031 29.261719 85.023438 29.070312 85.40625 29.070312 C 85.832031 29.070312 86.175781 29.410156 86.175781 29.832031 C 86.175781 30.597656 85.40625 31.359375 84.640625 32.125 C 83.871094 31.359375 83.101562 30.597656 83.101562 29.832031 C 83.101562 29.410156 83.445312 29.070312 83.871094 29.070312 C 84.253906 29.070312 84.445312 29.261719 84.640625 29.640625 Z M 84.640625 29.640625 " fill-opacity="1" fill-rule="nonzero"/><path fill="#ce303f" d="M 60.363281 29.441406 C 60.8125 28.820312 61.207031 28.539062 61.886719 28.648438 C 62.636719 28.769531 63.144531 29.472656 63.023438 30.21875 C 62.800781 31.566406 61.222656 32.695312 59.640625 33.824219 C 58.507812 32.253906 57.371094 30.6875 57.59375 29.339844 C 57.714844 28.59375 58.421875 28.089844 59.171875 28.210938 C 59.851562 28.320312 60.132812 28.710938 60.363281 29.441406 Z M 60.363281 29.441406 " fill-opacity="1" fill-rule="nonzero"/><path fill="#ce303f" d="M 85.460938 38.148438 C 85.734375 37.957031 85.9375 37.898438 86.203125 38.039062 C 86.492188 38.195312 86.601562 38.554688 86.441406 38.84375 C 86.15625 39.367188 85.34375 39.605469 84.535156 39.847656 C 84.292969 39.039062 84.050781 38.234375 84.335938 37.710938 C 84.496094 37.421875 84.859375 37.3125 85.148438 37.46875 C 85.410156 37.613281 85.472656 37.8125 85.460938 38.144531 Z M 85.460938 38.148438 " fill-opacity="1" fill-rule="nonzero"/></svg>