<svg xmlns="http://www.w3.org/2000/svg" xmlns:xlink="http://www.w3.org/1999/xlink" width="150" zoomAndPan="magnify" viewBox="0 0 112.5 74.999997" height="100" preserveAspectRatio="xMidYMid meet" version="1.0"><defs><clipPath id="8599c598d6"><path d="M 18.34375 26.074219 L 94.503906 26.074219 L 94.503906 51.460938 L 18.34375 51.460938 Z M 18.34375 26.074219 " clip-rule="nonzero"/></clipPath><clipPath id="79cef730bf"><path d="M 18.34375 27 L 93 27 L 93 51 L 18.34375 51 Z M 18.34375 27 " clip-rule="nonzero"/></clipPath></defs><g clip-path="url(#8599c598d6)"><path fill="#fe4c50" d="M 18.484375 26.074219 L 53.167969 27.078125 L 71.910156 27.078125 L 93.269531 27.027344 C 93.269531 27.027344 94.382812 26.792969 94.328125 27.78125 C 94.292969 28.769531 94.023438 40.429688 94.023438 40.429688 L 94.253906 51.136719 C 94.253906 51.136719 94.164062 51.460938 93.089844 51.40625 C 92.015625 51.351562 62.726562 49.878906 62.726562 49.878906 L 31.109375 50.3125 L 18.46875 50.582031 L 19.128906 39.171875 Z M 18.484375 26.074219 " fill-opacity="1" fill-rule="nonzero"/></g><g clip-path="url(#79cef730bf)"><path fill="#fe7c7c" d="M 84.570312 27.0625 C 83.566406 28.714844 84.195312 30.261719 84.875 31.785156 C 85.21875 32.542969 85.664062 32.632812 86.382812 32.183594 C 87.421875 31.554688 88.015625 30.53125 88.445312 29.453125 C 88.910156 28.246094 88.285156 27.546875 87.046875 27.835938 C 86.292969 28.015625 86.042969 27.746094 86.023438 27.0625 C 85.503906 27.042969 85.019531 27.0625 84.570312 27.0625 Z M 35.71875 32.8125 C 35.234375 32.558594 34.679688 32.648438 34.320312 33.0625 C 33.855469 33.582031 33.425781 33.601562 32.851562 33.242188 C 32.4375 32.992188 31.9375 32.9375 31.523438 33.3125 C 31.148438 33.65625 30.929688 34.03125 31.039062 34.644531 C 31.273438 35.847656 32.007812 36.675781 32.832031 37.429688 C 33.746094 38.273438 34.714844 38.109375 35.398438 37.050781 C 35.953125 36.1875 36.1875 35.199219 36.328125 34.210938 C 36.382812 33.636719 36.257812 33.097656 35.71875 32.8125 Z M 87.621094 43.609375 C 87.136719 43.359375 86.578125 43.449219 86.222656 43.859375 C 85.753906 44.382812 85.324219 44.398438 84.75 44.039062 C 84.339844 43.789062 83.835938 43.734375 83.421875 44.113281 C 83.046875 44.453125 82.832031 44.832031 82.9375 45.441406 C 83.171875 46.644531 83.90625 47.472656 84.734375 48.226562 C 85.648438 49.070312 86.617188 48.910156 87.296875 47.847656 C 87.851562 46.988281 88.085938 46 88.230469 45.011719 C 88.285156 44.4375 88.15625 43.898438 87.621094 43.609375 Z M 23.453125 28.285156 C 22.878906 28.105469 22.519531 28.515625 22.289062 28.894531 C 22 29.34375 21.75 29.453125 21.28125 29.183594 C 21.066406 29.039062 20.78125 28.964844 20.53125 28.914062 C 19.972656 28.804688 19.398438 28.894531 19.09375 29.398438 C 18.773438 29.917969 18.734375 30.621094 19.128906 31.085938 C 19.792969 31.875 20.492188 32.667969 21.371094 33.261719 C 22.289062 33.871094 23.078125 33.601562 23.542969 32.613281 C 24.007812 31.644531 23.953125 30.582031 24.152344 29.578125 C 24.207031 28.964844 24.082031 28.480469 23.453125 28.285156 Z M 64 30.332031 C 64.46875 31.066406 65.148438 31.625 65.757812 32.234375 C 66.441406 32.882812 67.121094 32.792969 67.640625 32.019531 C 68.199219 31.230469 68.449219 30.296875 68.789062 29.414062 C 68.988281 28.894531 69.167969 28.300781 68.59375 27.960938 C 68.054688 27.636719 67.410156 27.636719 66.925781 28.105469 C 66.457031 28.554688 66.027344 28.5 65.472656 28.320312 C 64.558594 28.015625 63.730469 28.605469 63.730469 29.542969 C 63.730469 29.792969 63.839844 30.0625 64 30.332031 Z M 66.171875 36.40625 C 65.6875 36.40625 65.382812 36.691406 65.113281 36.980469 C 64.789062 37.339844 64.59375 37.484375 64.089844 37.25 C 63.589844 37.015625 62.90625 36.890625 62.53125 37.429688 C 62.136719 37.96875 62.226562 38.597656 62.621094 39.171875 C 63.121094 39.925781 63.804688 40.519531 64.46875 41.113281 C 65.023438 41.613281 65.777344 41.523438 66.171875 40.878906 C 66.78125 39.855469 67.195312 38.722656 67.355469 37.769531 C 67.371094 36.636719 67.085938 36.40625 66.171875 36.40625 Z M 36.957031 45.082031 C 36.507812 44.902344 36.113281 45.046875 35.753906 45.207031 C 35.324219 45.425781 35.074219 45.476562 34.714844 45.066406 C 34.339844 44.652344 33.765625 44.273438 33.207031 44.632812 C 32.636719 44.976562 32.472656 45.585938 32.617188 46.269531 C 32.796875 47.167969 33.191406 47.976562 33.585938 48.765625 C 33.910156 49.449219 34.644531 49.644531 35.253906 49.214844 C 36.203125 48.496094 37.027344 47.617188 37.53125 46.808594 C 37.980469 45.746094 37.800781 45.425781 36.957031 45.082031 Z M 46.140625 37.984375 C 45.886719 38.507812 45.925781 39.082031 46.300781 39.511719 C 46.964844 40.265625 47.679688 41.003906 48.453125 41.652344 C 49.027344 42.136719 49.816406 41.972656 50.046875 41.363281 C 50.460938 40.285156 50.75 39.152344 50.855469 38.003906 C 50.925781 37.160156 49.976562 36.476562 49.367188 36.980469 C 48.703125 37.519531 48.113281 37.699219 47.339844 37.394531 C 46.800781 37.285156 46.371094 37.519531 46.140625 37.984375 Z M 25.425781 43.914062 C 24.960938 43.679688 24.492188 43.753906 24.171875 44.078125 C 23.722656 44.527344 23.433594 44.398438 22.988281 44.078125 C 22.539062 43.753906 21.910156 43.589844 21.390625 44.023438 C 20.925781 44.417969 20.835938 44.957031 21.03125 45.566406 C 21.28125 46.375 21.695312 47.09375 22.234375 47.722656 C 23.128906 48.785156 24.296875 48.640625 25.011719 47.417969 C 25.445312 46.664062 25.75 45.855469 25.765625 45.011719 C 25.710938 44.578125 25.890625 44.148438 25.425781 43.914062 Z M 53.636719 46.285156 C 53.976562 47.328125 54.675781 48.171875 55.410156 48.945312 C 55.894531 49.464844 56.503906 49.234375 56.882812 48.730469 C 57.472656 47.957031 58.011719 47.113281 58.296875 46.160156 C 58.441406 45.675781 58.40625 45.296875 58.03125 44.9375 C 57.652344 44.617188 57.257812 44.617188 56.882812 44.832031 C 56.449219 45.082031 56.039062 45.101562 55.625 44.832031 C 55.394531 44.667969 55.105469 44.6875 54.835938 44.6875 C 53.851562 44.6875 53.332031 45.335938 53.636719 46.285156 Z M 45.457031 32.34375 C 45.78125 32.773438 46.535156 32.792969 46.890625 32.324219 C 47.59375 31.390625 48.292969 30.386719 48.398438 29.144531 C 48.46875 28.246094 48.058594 27.925781 47.199219 28.230469 C 46.675781 28.410156 46.300781 28.410156 45.835938 28.015625 C 45.492188 27.726562 44.992188 27.582031 44.507812 27.871094 C 44.039062 28.15625 43.914062 28.589844 43.933594 29.289062 C 44.039062 30.367188 44.742188 31.390625 45.457031 32.34375 Z M 73.792969 49.71875 C 74.117188 50.148438 74.871094 50.167969 75.226562 49.699219 C 75.925781 48.765625 76.625 47.757812 76.734375 46.519531 C 76.804688 45.621094 76.394531 45.296875 75.53125 45.601562 C 75.011719 45.78125 74.636719 45.78125 74.167969 45.386719 C 73.828125 45.101562 73.328125 44.957031 72.84375 45.246094 C 72.375 45.53125 72.25 45.960938 72.269531 46.664062 C 72.375 47.742188 73.074219 48.765625 73.792969 49.71875 Z M 80.429688 34.96875 C 79.78125 34.644531 79.351562 34.949219 78.902344 35.34375 C 78.597656 35.632812 78.242188 35.523438 77.882812 35.417969 C 77.308594 35.273438 76.664062 35.238281 76.394531 35.847656 C 76.140625 36.421875 76.214844 37.085938 76.824219 37.535156 C 77.46875 38.003906 78.078125 38.542969 78.761719 38.957031 C 79.695312 39.53125 80.320312 39.277344 80.699219 38.253906 C 80.914062 37.679688 81.054688 37.105469 81.003906 36.691406 C 80.964844 35.9375 81.144531 35.308594 80.429688 34.96875 Z M 90.507812 41.398438 C 90.882812 41.523438 91.261719 41.488281 91.582031 41.183594 C 92.230469 40.554688 92.570312 39.765625 92.785156 38.917969 C 93.070312 37.789062 92.355469 37.125 91.277344 37.589844 C 90.742188 37.824219 90.382812 37.769531 89.898438 37.484375 C 89.109375 37.035156 88.515625 37.375 88.515625 38.238281 C 88.515625 38.847656 89.96875 41.21875 90.507812 41.398438 Z M 90.507812 41.398438 " fill-opacity="1" fill-rule="nonzero"/></g></svg>